  0
SECTION
  2
HEADER
  9
$ACADVER
  1
AC1009
  9
$INSBASE
 10
0.0
 20
0.0
 30
0.0
  9
$EXTMIN
 10
0.0
 20
0.0
 30
0.0
  9
$EXTMAX
 10
0.0
 20
0.0
 30
0.0
  0
ENDSEC
  0
SECTION
  2
TABLES
  0
TABLE
  2
VPORT
 70
0
  0
ENDTAB
  0
TABLE
  2
LTYPE
 70
1
  0
LTYPE
  2
CONTINUOUS
 70
0
  3
Solid line
 72
65
 73
0
 40
0.0
  0
ENDTAB
  0
TABLE
  2
LAYER
 70
1
  0
LAYER
  2
0
 70
64
 62
7
  6
continuous
  0
ENDTAB
  0
TABLE
  2
STYLE
 70
1
  0
STYLE
  2
STANDARD
 70
0
 40
0
 41
1.0
 50
0.0
 71
0
 42
1
 3
ARIAL.TTF
 4

  0
ENDTAB
  0
TABLE
  2
VIEW
 70
0
  0
ENDTAB
  0
ENDSEC
  0
SECTION
  2
BLOCKS
  0
BLOCK
  8
0
  2
SHAPE2DVIEW
 70
0
 10
0.0
 20
0.0
 30
0.0
  3
SHAPE2DVIEW
  0
LINE
  8
0
 62
0
 10
146.624
 20
-95.3356
 30
0.0
 11
145.374
 21
-95.3356
 31
0.0
  0
POLYLINE
  8
0
 62
0
 70
0
 66
1
 10
0.0
 20
0.0
 30
0.0
  0
VERTEX
  8
0
 10
146.624
 20
-95.3356
 30
0.0
  0
VERTEX
  8
0
 10
146.624
 20
-95.3156
 30
0.0
  0
SEQEND
  8
0
  0
LINE
  8
0
 62
0
 10
146.624
 20
-95.3156
 30
0.0
 11
146.624
 21
-94.9556
 31
0.0
  0
POLYLINE
  8
0
 62
0
 70
0
 66
1
 10
0.0
 20
0.0
 30
0.0
  0
VERTEX
  8
0
 10
146.624
 20
-94.9356
 30
0.0
  0
VERTEX
  8
0
 10
146.624
 20
-94.9556
 30
0.0
  0
SEQEND
  8
0
  0
POLYLINE
  8
0
 62
0
 70
0
 66
1
 10
0.0
 20
0.0
 30
0.0
  0
VERTEX
  8
0
 10
145.374
 20
-95.3356
 30
0.0
  0
VERTEX
  8
0
 10
145.374
 20
-95.3156
 30
0.0
  0
SEQEND
  8
0
  0
LINE
  8
0
 62
0
 10
145.374
 20
-95.3156
 30
0.0
 11
145.374
 21
-94.9556
 31
0.0
  0
POLYLINE
  8
0
 62
0
 70
0
 66
1
 10
0.0
 20
0.0
 30
0.0
  0
VERTEX
  8
0
 10
145.374
 20
-94.9356
 30
0.0
  0
VERTEX
  8
0
 10
145.374
 20
-94.9556
 30
0.0
  0
SEQEND
  8
0
  0
LINE
  8
0
 62
0
 10
146.624
 20
-94.9356
 30
0.0
 11
146.624
 21
-93.7356
 31
0.0
  0
LINE
  8
0
 62
0
 10
145.374
 20
-94.9356
 30
0.0
 11
145.374
 21
-93.7356
 31
0.0
  0
POLYLINE
  8
0
 62
0
 70
0
 66
1
 10
0.0
 20
0.0
 30
0.0
  0
VERTEX
  8
0
 10
146.624
 20
-93.7356
 30
0.0
  0
VERTEX
  8
0
 10
146.624
 20
-93.7156
 30
0.0
  0
SEQEND
  8
0
  0
LINE
  8
0
 62
0
 10
146.624
 20
-93.7156
 30
0.0
 11
146.624
 21
-93.3556
 31
0.0
  0
POLYLINE
  8
0
 62
0
 70
0
 66
1
 10
0.0
 20
0.0
 30
0.0
  0
VERTEX
  8
0
 10
146.624
 20
-93.3356
 30
0.0
  0
VERTEX
  8
0
 10
146.624
 20
-93.3556
 30
0.0
  0
SEQEND
  8
0
  0
LINE
  8
0
 62
0
 10
146.624
 20
-94.9356
 30
0.0
 11
145.374
 21
-94.9356
 31
0.0
  0
LINE
  8
0
 62
0
 10
146.624
 20
-93.7356
 30
0.0
 11
145.374
 21
-93.7356
 31
0.0
  0
POLYLINE
  8
0
 62
0
 70
0
 66
1
 10
0.0
 20
0.0
 30
0.0
  0
VERTEX
  8
0
 10
145.374
 20
-93.7356
 30
0.0
  0
VERTEX
  8
0
 10
145.374
 20
-93.7156
 30
0.0
  0
SEQEND
  8
0
  0
LINE
  8
0
 62
0
 10
145.374
 20
-93.7156
 30
0.0
 11
145.374
 21
-93.3556
 31
0.0
  0
POLYLINE
  8
0
 62
0
 70
0
 66
1
 10
0.0
 20
0.0
 30
0.0
  0
VERTEX
  8
0
 10
145.374
 20
-93.3356
 30
0.0
  0
VERTEX
  8
0
 10
145.374
 20
-93.3556
 30
0.0
  0
SEQEND
  8
0
  0
LINE
  8
0
 62
0
 10
146.624
 20
-93.3356
 30
0.0
 11
145.374
 21
-93.3356
 31
0.0
  0
LINE
  8
0
 62
0
 10
146.624
 20
-95.3156
 30
0.0
 11
145.374
 21
-95.3156
 31
0.0
  0
LINE
  8
0
 62
0
 10
146.624
 20
-94.9556
 30
0.0
 11
145.374
 21
-94.9556
 31
0.0
  0
LINE
  8
0
 62
0
 10
146.624
 20
-93.3556
 30
0.0
 11
145.374
 21
-93.3556
 31
0.0
  0
LINE
  8
0
 62
0
 10
146.624
 20
-93.7156
 30
0.0
 11
145.374
 21
-93.7156
 31
0.0
  0
ENDBLK
  0
BLOCK
  8
0
  2
SHAPE2DVIEW009
 70
0
 10
0.0
 20
0.0
 30
0.0
  3
SHAPE2DVIEW009
  0
POLYLINE
  8
0
 62
0
 70
0
 66
1
 10
0.0
 20
0.0
 30
0.0
  0
VERTEX
  8
0
 10
152.568
 20
-101.159
 30
0.0
  0
VERTEX
  8
0
 10
152.543
 20
-101.159
 30
0.0
  0
SEQEND
  8
0
  0
LINE
  8
0
 62
0
 10
152.543
 20
-101.159
 30
0.0
 11
151.343
 21
-101.159
 31
0.0
  0
POLYLINE
  8
0
 62
0
 70
0
 66
1
 10
0.0
 20
0.0
 30
0.0
  0
VERTEX
  8
0
 10
151.318
 20
-101.159
 30
0.0
  0
VERTEX
  8
0
 10
151.343
 20
-101.159
 30
0.0
  0
SEQEND
  8
0
  0
LINE
  8
0
 62
0
 10
152.568
 20
-101.159
 30
0.0
 11
152.568
 21
-101.509
 31
0.0
  0
LINE
  8
0
 62
0
 10
152.568
 20
-101.159
 30
0.0
 11
152.568
 21
-101.509
 31
0.0
  0
POLYLINE
  8
0
 62
0
 70
0
 66
1
 10
0.0
 20
0.0
 30
0.0
  0
VERTEX
  8
0
 10
152.568
 20
-101.509
 30
0.0
  0
VERTEX
  8
0
 10
152.543
 20
-101.509
 30
0.0
  0
SEQEND
  8
0
  0
LINE
  8
0
 62
0
 10
152.543
 20
-101.509
 30
0.0
 11
151.343
 21
-101.509
 31
0.0
  0
LINE
  8
0
 62
0
 10
151.318
 20
-101.159
 30
0.0
 11
151.318
 21
-101.509
 31
0.0
  0
POLYLINE
  8
0
 62
0
 70
0
 66
1
 10
0.0
 20
0.0
 30
0.0
  0
VERTEX
  8
0
 10
151.318
 20
-101.509
 30
0.0
  0
VERTEX
  8
0
 10
151.343
 20
-101.509
 30
0.0
  0
SEQEND
  8
0
  0
LINE
  8
0
 62
0
 10
151.318
 20
-101.159
 30
0.0
 11
151.318
 21
-101.509
 31
0.0
  0
LINE
  8
0
 62
0
 10
152.548
 20
-101.509
 30
0.0
 11
152.548
 21
-102.809
 31
0.0
  0
LINE
  8
0
 62
0
 10
151.338
 20
-101.509
 30
0.0
 11
151.338
 21
-102.809
 31
0.0
  0
POLYLINE
  8
0
 62
0
 70
0
 66
1
 10
0.0
 20
0.0
 30
0.0
  0
VERTEX
  8
0
 10
152.568
 20
-102.809
 30
0.0
  0
VERTEX
  8
0
 10
152.543
 20
-102.809
 30
0.0
  0
SEQEND
  8
0
  0
LINE
  8
0
 62
0
 10
152.543
 20
-102.809
 30
0.0
 11
151.343
 21
-102.809
 31
0.0
  0
POLYLINE
  8
0
 62
0
 70
0
 66
1
 10
0.0
 20
0.0
 30
0.0
  0
VERTEX
  8
0
 10
151.318
 20
-102.809
 30
0.0
  0
VERTEX
  8
0
 10
151.343
 20
-102.809
 30
0.0
  0
SEQEND
  8
0
  0
LINE
  8
0
 62
0
 10
152.568
 20
-102.809
 30
0.0
 11
152.568
 21
-103.159
 31
0.0
  0
LINE
  8
0
 62
0
 10
152.568
 20
-102.809
 30
0.0
 11
152.568
 21
-103.159
 31
0.0
  0
POLYLINE
  8
0
 62
0
 70
0
 66
1
 10
0.0
 20
0.0
 30
0.0
  0
VERTEX
  8
0
 10
152.568
 20
-103.159
 30
0.0
  0
VERTEX
  8
0
 10
152.543
 20
-103.159
 30
0.0
  0
SEQEND
  8
0
  0
LINE
  8
0
 62
0
 10
152.543
 20
-103.159
 30
0.0
 11
151.343
 21
-103.159
 31
0.0
  0
LINE
  8
0
 62
0
 10
151.318
 20
-102.809
 30
0.0
 11
151.318
 21
-103.159
 31
0.0
  0
POLYLINE
  8
0
 62
0
 70
0
 66
1
 10
0.0
 20
0.0
 30
0.0
  0
VERTEX
  8
0
 10
151.318
 20
-103.159
 30
0.0
  0
VERTEX
  8
0
 10
151.343
 20
-103.159
 30
0.0
  0
SEQEND
  8
0
  0
LINE
  8
0
 62
0
 10
151.318
 20
-102.809
 30
0.0
 11
151.318
 21
-103.159
 31
0.0
  0
LINE
  8
0
 62
0
 10
152.543
 20
-101.159
 30
0.0
 11
152.543
 21
-101.509
 31
0.0
  0
LINE
  8
0
 62
0
 10
151.343
 20
-101.159
 30
0.0
 11
151.343
 21
-101.509
 31
0.0
  0
LINE
  8
0
 62
0
 10
152.523
 20
-101.509
 30
0.0
 11
152.523
 21
-102.809
 31
0.0
  0
LINE
  8
0
 62
0
 10
151.363
 20
-101.509
 30
0.0
 11
151.363
 21
-102.809
 31
0.0
  0
LINE
  8
0
 62
0
 10
152.543
 20
-102.809
 30
0.0
 11
152.543
 21
-103.159
 31
0.0
  0
LINE
  8
0
 62
0
 10
151.343
 20
-102.809
 30
0.0
 11
151.343
 21
-103.159
 31
0.0
  0
ENDBLK
  0
BLOCK
  8
0
  2
SHAPE2DVIEW010
 70
0
 10
0.0
 20
0.0
 30
0.0
  3
SHAPE2DVIEW010
  0
LINE
  8
0
 62
0
 10
140.392
 20
-92.075
 30
0.0
 11
167.005
 21
-92.075
 31
0.0
  0
LINE
  8
0
 62
0
 10
140.4
 20
-106.68
 30
0.0
 11
140.392
 21
-92.075
 31
0.0
  0
LINE
  8
0
 62
0
 10
167.005
 20
-92.075
 30
0.0
 11
167.005
 21
-106.68
 31
0.0
  0
LINE
  8
0
 62
0
 10
167.005
 20
-106.68
 30
0.0
 11
140.4
 21
-106.68
 31
0.0
  0
CIRCLE
  8
0
 62
0
 10
162.04988
 20
-102.74386
 30
0.0
 40
0.50038
  0
CIRCLE
  8
0
 62
0
 10
155.956
 20
-105.156
 30
0.0
 40
0.508
  0
CIRCLE
  8
0
 62
0
 10
153.416
 20
-105.156
 30
0.0
 40
0.508
  0
CIRCLE
  8
0
 62
0
 10
162.04988
 20
-100.20386
 30
0.0
 40
0.50038
  0
CIRCLE
  8
0
 62
0
 10
162.04988
 20
-98.17186
 30
0.0
 40
0.50038
  0
CIRCLE
  8
0
 62
0
 10
142.748
 20
-101.52
 30
0.0
 40
0.6604
  0
CIRCLE
  8
0
 62
0
 10
150.876
 20
-105.156
 30
0.0
 40
0.508
  0
CIRCLE
  8
0
 62
0
 10
148.336
 20
-105.156
 30
0.0
 40
0.508
  0
CIRCLE
  8
0
 62
0
 10
142.748
 20
-96.52
 30
0.0
 40
0.6604
  0
CIRCLE
  8
0
 62
0
 10
162.04988
 20
-95.63186
 30
0.0
 40
0.50038
  0
CIRCLE
  8
0
 62
0
 10
142.875
 20
-93.218
 30
0.0
 40
0.625
  0
ARC
  8
0
 62
0
 10
163.588
 20
-93.345
 30
0.0
 40
0.5
 50
90.0
 51
-90.0
  0
LINE
  8
0
 62
0
 10
165.088
 20
-92.845
 30
0.0
 11
163.588
 21
-92.845
 31
0.0
  0
ARC
  8
0
 62
0
 10
165.088
 20
-93.345
 30
0.0
 40
0.5
 50
-90.0
 51
90.0
  0
LINE
  8
0
 62
0
 10
163.588
 20
-93.845
 30
0.0
 11
165.088
 21
-93.845
 31
0.0
  0
ARC
  8
0
 62
0
 10
163.588
 20
-105.029
 30
0.0
 40
0.5
 50
90.0
 51
-90.0
  0
LINE
  8
0
 62
0
 10
165.088
 20
-104.529
 30
0.0
 11
163.588
 21
-104.529
 31
0.0
  0
ARC
  8
0
 62
0
 10
165.088
 20
-105.029
 30
0.0
 40
0.5
 50
-90.0
 51
90.0
  0
LINE
  8
0
 62
0
 10
163.588
 20
-105.529
 30
0.0
 11
165.088
 21
-105.529
 31
0.0
  0
ENDBLK
  0
BLOCK
  8
0
  2
SHAPE2DVIEW005
 70
0
 10
0.0
 20
0.0
 30
0.0
  3
SHAPE2DVIEW005
  0
POLYLINE
  8
0
 62
0
 70
0
 66
1
 10
0.0
 20
0.0
 30
0.0
  0
VERTEX
  8
0
 10
158.0
 20
-104.575
 30
0.0
  0
VERTEX
  8
0
 10
158.0
 20
-104.6
 30
0.0
  0
SEQEND
  8
0
  0
LINE
  8
0
 62
0
 10
158.0
 20
-104.6
 30
0.0
 11
158.0
 21
-105.8
 31
0.0
  0
POLYLINE
  8
0
 62
0
 70
0
 66
1
 10
0.0
 20
0.0
 30
0.0
  0
VERTEX
  8
0
 10
158.0
 20
-105.825
 30
0.0
  0
VERTEX
  8
0
 10
158.0
 20
-105.8
 30
0.0
  0
SEQEND
  8
0
  0
LINE
  8
0
 62
0
 10
158.0
 20
-104.575
 30
0.0
 11
158.35
 21
-104.575
 31
0.0
  0
POLYLINE
  8
0
 62
0
 70
0
 66
1
 10
0.0
 20
0.0
 30
0.0
  0
VERTEX
  8
0
 10
158.35
 20
-104.575
 30
0.0
  0
VERTEX
  8
0
 10
158.35
 20
-104.6
 30
0.0
  0
SEQEND
  8
0
  0
LINE
  8
0
 62
0
 10
158.35
 20
-104.6
 30
0.0
 11
158.35
 21
-105.8
 31
0.0
  0
LINE
  8
0
 62
0
 10
158.0
 20
-105.825
 30
0.0
 11
158.35
 21
-105.825
 31
0.0
  0
POLYLINE
  8
0
 62
0
 70
0
 66
1
 10
0.0
 20
0.0
 30
0.0
  0
VERTEX
  8
0
 10
158.35
 20
-105.825
 30
0.0
  0
VERTEX
  8
0
 10
158.35
 20
-105.8
 30
0.0
  0
SEQEND
  8
0
  0
LINE
  8
0
 62
0
 10
158.35
 20
-104.595
 30
0.0
 11
159.65
 21
-104.595
 31
0.0
  0
LINE
  8
0
 62
0
 10
158.35
 20
-105.805
 30
0.0
 11
159.65
 21
-105.805
 31
0.0
  0
POLYLINE
  8
0
 62
0
 70
0
 66
1
 10
0.0
 20
0.0
 30
0.0
  0
VERTEX
  8
0
 10
159.65
 20
-104.575
 30
0.0
  0
VERTEX
  8
0
 10
159.65
 20
-104.6
 30
0.0
  0
SEQEND
  8
0
  0
LINE
  8
0
 62
0
 10
159.65
 20
-104.6
 30
0.0
 11
159.65
 21
-105.8
 31
0.0
  0
POLYLINE
  8
0
 62
0
 70
0
 66
1
 10
0.0
 20
0.0
 30
0.0
  0
VERTEX
  8
0
 10
159.65
 20
-105.825
 30
0.0
  0
VERTEX
  8
0
 10
159.65
 20
-105.8
 30
0.0
  0
SEQEND
  8
0
  0
LINE
  8
0
 62
0
 10
159.65
 20
-104.575
 30
0.0
 11
160.0
 21
-104.575
 31
0.0
  0
POLYLINE
  8
0
 62
0
 70
0
 66
1
 10
0.0
 20
0.0
 30
0.0
  0
VERTEX
  8
0
 10
160.0
 20
-104.575
 30
0.0
  0
VERTEX
  8
0
 10
160.0
 20
-104.6
 30
0.0
  0
SEQEND
  8
0
  0
LINE
  8
0
 62
0
 10
160.0
 20
-104.6
 30
0.0
 11
160.0
 21
-105.8
 31
0.0
  0
LINE
  8
0
 62
0
 10
159.65
 20
-105.825
 30
0.0
 11
160.0
 21
-105.825
 31
0.0
  0
POLYLINE
  8
0
 62
0
 70
0
 66
1
 10
0.0
 20
0.0
 30
0.0
  0
VERTEX
  8
0
 10
160.0
 20
-105.825
 30
0.0
  0
VERTEX
  8
0
 10
160.0
 20
-105.8
 30
0.0
  0
SEQEND
  8
0
  0
LINE
  8
0
 62
0
 10
158.0
 20
-104.6
 30
0.0
 11
158.35
 21
-104.6
 31
0.0
  0
LINE
  8
0
 62
0
 10
158.0
 20
-105.8
 30
0.0
 11
158.35
 21
-105.8
 31
0.0
  0
LINE
  8
0
 62
0
 10
158.35
 20
-104.62
 30
0.0
 11
159.65
 21
-104.62
 31
0.0
  0
LINE
  8
0
 62
0
 10
158.35
 20
-105.78
 30
0.0
 11
159.65
 21
-105.78
 31
0.0
  0
LINE
  8
0
 62
0
 10
159.65
 20
-104.6
 30
0.0
 11
160.0
 21
-104.6
 31
0.0
  0
LINE
  8
0
 62
0
 10
159.65
 20
-105.8
 30
0.0
 11
160.0
 21
-105.8
 31
0.0
  0
ENDBLK
  0
BLOCK
  8
0
  2
SHAPE2DVIEW007
 70
0
 10
0.0
 20
0.0
 30
0.0
  3
SHAPE2DVIEW007
  0
POLYLINE
  8
0
 62
0
 70
0
 66
1
 10
0.0
 20
0.0
 30
0.0
  0
VERTEX
  8
0
 10
158.125
 20
-101.2
 30
0.0
  0
VERTEX
  8
0
 10
158.1
 20
-101.2
 30
0.0
  0
SEQEND
  8
0
  0
LINE
  8
0
 62
0
 10
158.1
 20
-101.2
 30
0.0
 11
156.9
 21
-101.2
 31
0.0
  0
POLYLINE
  8
0
 62
0
 70
0
 66
1
 10
0.0
 20
0.0
 30
0.0
  0
VERTEX
  8
0
 10
156.875
 20
-101.2
 30
0.0
  0
VERTEX
  8
0
 10
156.9
 20
-101.2
 30
0.0
  0
SEQEND
  8
0
  0
LINE
  8
0
 62
0
 10
158.125
 20
-101.2
 30
0.0
 11
158.125
 21
-101.55
 31
0.0
  0
POLYLINE
  8
0
 62
0
 70
0
 66
1
 10
0.0
 20
0.0
 30
0.0
  0
VERTEX
  8
0
 10
158.125
 20
-101.55
 30
0.0
  0
VERTEX
  8
0
 10
158.1
 20
-101.55
 30
0.0
  0
SEQEND
  8
0
  0
LINE
  8
0
 62
0
 10
158.1
 20
-101.55
 30
0.0
 11
156.9
 21
-101.55
 31
0.0
  0
LINE
  8
0
 62
0
 10
156.875
 20
-101.2
 30
0.0
 11
156.875
 21
-101.55
 31
0.0
  0
POLYLINE
  8
0
 62
0
 70
0
 66
1
 10
0.0
 20
0.0
 30
0.0
  0
VERTEX
  8
0
 10
156.875
 20
-101.55
 30
0.0
  0
VERTEX
  8
0
 10
156.9
 20
-101.55
 30
0.0
  0
SEQEND
  8
0
  0
LINE
  8
0
 62
0
 10
156.875
 20
-101.2
 30
0.0
 11
156.875
 21
-101.55
 31
0.0
  0
LINE
  8
0
 62
0
 10
158.105
 20
-101.55
 30
0.0
 11
158.105
 21
-102.85
 31
0.0
  0
LINE
  8
0
 62
0
 10
156.895
 20
-101.55
 30
0.0
 11
156.895
 21
-102.85
 31
0.0
  0
POLYLINE
  8
0
 62
0
 70
0
 66
1
 10
0.0
 20
0.0
 30
0.0
  0
VERTEX
  8
0
 10
158.125
 20
-102.85
 30
0.0
  0
VERTEX
  8
0
 10
158.1
 20
-102.85
 30
0.0
  0
SEQEND
  8
0
  0
LINE
  8
0
 62
0
 10
158.1
 20
-102.85
 30
0.0
 11
156.9
 21
-102.85
 31
0.0
  0
POLYLINE
  8
0
 62
0
 70
0
 66
1
 10
0.0
 20
0.0
 30
0.0
  0
VERTEX
  8
0
 10
156.875
 20
-102.85
 30
0.0
  0
VERTEX
  8
0
 10
156.9
 20
-102.85
 30
0.0
  0
SEQEND
  8
0
  0
LINE
  8
0
 62
0
 10
158.125
 20
-102.85
 30
0.0
 11
158.125
 21
-103.2
 31
0.0
  0
POLYLINE
  8
0
 62
0
 70
0
 66
1
 10
0.0
 20
0.0
 30
0.0
  0
VERTEX
  8
0
 10
158.125
 20
-103.2
 30
0.0
  0
VERTEX
  8
0
 10
158.1
 20
-103.2
 30
0.0
  0
SEQEND
  8
0
  0
LINE
  8
0
 62
0
 10
158.1
 20
-103.2
 30
0.0
 11
156.9
 21
-103.2
 31
0.0
  0
LINE
  8
0
 62
0
 10
156.875
 20
-102.85
 30
0.0
 11
156.875
 21
-103.2
 31
0.0
  0
POLYLINE
  8
0
 62
0
 70
0
 66
1
 10
0.0
 20
0.0
 30
0.0
  0
VERTEX
  8
0
 10
156.875
 20
-103.2
 30
0.0
  0
VERTEX
  8
0
 10
156.9
 20
-103.2
 30
0.0
  0
SEQEND
  8
0
  0
LINE
  8
0
 62
0
 10
156.875
 20
-102.85
 30
0.0
 11
156.875
 21
-103.2
 31
0.0
  0
LINE
  8
0
 62
0
 10
158.1
 20
-101.2
 30
0.0
 11
158.1
 21
-101.55
 31
0.0
  0
LINE
  8
0
 62
0
 10
156.9
 20
-101.2
 30
0.0
 11
156.9
 21
-101.55
 31
0.0
  0
LINE
  8
0
 62
0
 10
158.08
 20
-101.55
 30
0.0
 11
158.08
 21
-102.85
 31
0.0
  0
LINE
  8
0
 62
0
 10
156.92
 20
-101.55
 30
0.0
 11
156.92
 21
-102.85
 31
0.0
  0
LINE
  8
0
 62
0
 10
158.1
 20
-102.85
 30
0.0
 11
158.1
 21
-103.2
 31
0.0
  0
LINE
  8
0
 62
0
 10
156.9
 20
-102.85
 30
0.0
 11
156.9
 21
-103.2
 31
0.0
  0
ENDBLK
  0
BLOCK
  8
0
  2
SHAPE2DVIEW006
 70
0
 10
0.0
 20
0.0
 30
0.0
  3
SHAPE2DVIEW006
  0
POLYLINE
  8
0
 62
0
 70
0
 66
1
 10
0.0
 20
0.0
 30
0.0
  0
VERTEX
  8
0
 10
157.877
 20
-101.229
 30
0.0
  0
VERTEX
  8
0
 10
157.877
 20
-101.254
 30
0.0
  0
SEQEND
  8
0
  0
LINE
  8
0
 62
0
 10
157.877
 20
-102.454
 30
0.0
 11
157.877
 21
-101.254
 31
0.0
  0
POLYLINE
  8
0
 62
0
 70
0
 66
1
 10
0.0
 20
0.0
 30
0.0
  0
VERTEX
  8
0
 10
157.877
 20
-102.479
 30
0.0
  0
VERTEX
  8
0
 10
157.877
 20
-102.454
 30
0.0
  0
SEQEND
  8
0
  0
LINE
  8
0
 62
0
 10
157.877
 20
-102.479
 30
0.0
 11
158.227
 21
-102.479
 31
0.0
  0
LINE
  8
0
 62
0
 10
157.877
 20
-102.479
 30
0.0
 11
158.227
 21
-102.479
 31
0.0
  0
POLYLINE
  8
0
 62
0
 70
0
 66
1
 10
0.0
 20
0.0
 30
0.0
  0
VERTEX
  8
0
 10
158.227
 20
-102.479
 30
0.0
  0
VERTEX
  8
0
 10
158.227
 20
-102.454
 30
0.0
  0
SEQEND
  8
0
  0
LINE
  8
0
 62
0
 10
158.227
 20
-102.454
 30
0.0
 11
158.227
 21
-101.254
 31
0.0
  0
LINE
  8
0
 62
0
 10
157.877
 20
-101.229
 30
0.0
 11
158.227
 21
-101.229
 31
0.0
  0
POLYLINE
  8
0
 62
0
 70
0
 66
1
 10
0.0
 20
0.0
 30
0.0
  0
VERTEX
  8
0
 10
158.227
 20
-101.229
 30
0.0
  0
VERTEX
  8
0
 10
158.227
 20
-101.254
 30
0.0
  0
SEQEND
  8
0
  0
LINE
  8
0
 62
0
 10
157.877
 20
-101.229
 30
0.0
 11
158.227
 21
-101.229
 31
0.0
  0
LINE
  8
0
 62
0
 10
158.227
 20
-101.249
 30
0.0
 11
159.527
 21
-101.249
 31
0.0
  0
LINE
  8
0
 62
0
 10
158.227
 20
-102.459
 30
0.0
 11
159.527
 21
-102.459
 31
0.0
  0
POLYLINE
  8
0
 62
0
 70
0
 66
1
 10
0.0
 20
0.0
 30
0.0
  0
VERTEX
  8
0
 10
159.527
 20
-101.229
 30
0.0
  0
VERTEX
  8
0
 10
159.527
 20
-101.254
 30
0.0
  0
SEQEND
  8
0
  0
LINE
  8
0
 62
0
 10
159.527
 20
-102.454
 30
0.0
 11
159.527
 21
-101.254
 31
0.0
  0
POLYLINE
  8
0
 62
0
 70
0
 66
1
 10
0.0
 20
0.0
 30
0.0
  0
VERTEX
  8
0
 10
159.527
 20
-102.479
 30
0.0
  0
VERTEX
  8
0
 10
159.527
 20
-102.454
 30
0.0
  0
SEQEND
  8
0
  0
LINE
  8
0
 62
0
 10
159.527
 20
-102.479
 30
0.0
 11
159.877
 21
-102.479
 31
0.0
  0
LINE
  8
0
 62
0
 10
159.527
 20
-102.479
 30
0.0
 11
159.877
 21
-102.479
 31
0.0
  0
POLYLINE
  8
0
 62
0
 70
0
 66
1
 10
0.0
 20
0.0
 30
0.0
  0
VERTEX
  8
0
 10
159.877
 20
-102.479
 30
0.0
  0
VERTEX
  8
0
 10
159.877
 20
-102.454
 30
0.0
  0
SEQEND
  8
0
  0
LINE
  8
0
 62
0
 10
159.877
 20
-102.454
 30
0.0
 11
159.877
 21
-101.254
 31
0.0
  0
LINE
  8
0
 62
0
 10
159.527
 20
-101.229
 30
0.0
 11
159.877
 21
-101.229
 31
0.0
  0
POLYLINE
  8
0
 62
0
 70
0
 66
1
 10
0.0
 20
0.0
 30
0.0
  0
VERTEX
  8
0
 10
159.877
 20
-101.229
 30
0.0
  0
VERTEX
  8
0
 10
159.877
 20
-101.254
 30
0.0
  0
SEQEND
  8
0
  0
LINE
  8
0
 62
0
 10
159.527
 20
-101.229
 30
0.0
 11
159.877
 21
-101.229
 31
0.0
  0
LINE
  8
0
 62
0
 10
157.877
 20
-102.454
 30
0.0
 11
158.227
 21
-102.454
 31
0.0
  0
LINE
  8
0
 62
0
 10
157.877
 20
-101.254
 30
0.0
 11
158.227
 21
-101.254
 31
0.0
  0
LINE
  8
0
 62
0
 10
158.227
 20
-101.274
 30
0.0
 11
159.527
 21
-101.274
 31
0.0
  0
LINE
  8
0
 62
0
 10
158.227
 20
-102.434
 30
0.0
 11
159.527
 21
-102.434
 31
0.0
  0
LINE
  8
0
 62
0
 10
159.527
 20
-102.454
 30
0.0
 11
159.877
 21
-102.454
 31
0.0
  0
LINE
  8
0
 62
0
 10
159.527
 20
-101.254
 30
0.0
 11
159.877
 21
-101.254
 31
0.0
  0
ENDBLK
  0
BLOCK
  8
0
  2
SHAPE2DVIEW008
 70
0
 10
0.0
 20
0.0
 30
0.0
  3
SHAPE2DVIEW008
  0
POLYLINE
  8
0
 62
0
 70
0
 66
1
 10
0.0
 20
0.0
 30
0.0
  0
VERTEX
  8
0
 10
145.323
 20
-101.4
 30
0.0
  0
VERTEX
  8
0
 10
145.348
 20
-101.4
 30
0.0
  0
SEQEND
  8
0
  0
LINE
  8
0
 62
0
 10
146.548
 20
-101.4
 30
0.0
 11
145.348
 21
-101.4
 31
0.0
  0
POLYLINE
  8
0
 62
0
 70
0
 66
1
 10
0.0
 20
0.0
 30
0.0
  0
VERTEX
  8
0
 10
146.573
 20
-101.4
 30
0.0
  0
VERTEX
  8
0
 10
146.548
 20
-101.4
 30
0.0
  0
SEQEND
  8
0
  0
LINE
  8
0
 62
0
 10
146.573
 20
-101.4
 30
0.0
 11
146.573
 21
-101.05
 31
0.0
  0
LINE
  8
0
 62
0
 10
146.573
 20
-101.4
 30
0.0
 11
146.573
 21
-101.05
 31
0.0
  0
POLYLINE
  8
0
 62
0
 70
0
 66
1
 10
0.0
 20
0.0
 30
0.0
  0
VERTEX
  8
0
 10
146.573
 20
-101.05
 30
0.0
  0
VERTEX
  8
0
 10
146.548
 20
-101.05
 30
0.0
  0
SEQEND
  8
0
  0
LINE
  8
0
 62
0
 10
146.548
 20
-101.05
 30
0.0
 11
145.348
 21
-101.05
 31
0.0
  0
LINE
  8
0
 62
0
 10
145.323
 20
-101.4
 30
0.0
 11
145.323
 21
-101.05
 31
0.0
  0
POLYLINE
  8
0
 62
0
 70
0
 66
1
 10
0.0
 20
0.0
 30
0.0
  0
VERTEX
  8
0
 10
145.323
 20
-101.05
 30
0.0
  0
VERTEX
  8
0
 10
145.348
 20
-101.05
 30
0.0
  0
SEQEND
  8
0
  0
LINE
  8
0
 62
0
 10
145.323
 20
-101.4
 30
0.0
 11
145.323
 21
-101.05
 31
0.0
  0
LINE
  8
0
 62
0
 10
145.343
 20
-101.05
 30
0.0
 11
145.343
 21
-99.75
 31
0.0
  0
LINE
  8
0
 62
0
 10
145.343
 20
-101.05
 30
0.0
 11
145.343
 21
-99.75
 31
0.0
  0
LINE
  8
0
 62
0
 10
146.553
 20
-101.05
 30
0.0
 11
146.553
 21
-99.75
 31
0.0
  0
POLYLINE
  8
0
 62
0
 70
0
 66
1
 10
0.0
 20
0.0
 30
0.0
  0
VERTEX
  8
0
 10
145.323
 20
-99.75
 30
0.0
  0
VERTEX
  8
0
 10
145.348
 20
-99.75
 30
0.0
  0
SEQEND
  8
0
  0
LINE
  8
0
 62
0
 10
146.548
 20
-99.75
 30
0.0
 11
145.348
 21
-99.75
 31
0.0
  0
POLYLINE
  8
0
 62
0
 70
0
 66
1
 10
0.0
 20
0.0
 30
0.0
  0
VERTEX
  8
0
 10
146.573
 20
-99.75
 30
0.0
  0
VERTEX
  8
0
 10
146.548
 20
-99.75
 30
0.0
  0
SEQEND
  8
0
  0
LINE
  8
0
 62
0
 10
146.573
 20
-99.75
 30
0.0
 11
146.573
 21
-99.4
 31
0.0
  0
LINE
  8
0
 62
0
 10
146.573
 20
-99.75
 30
0.0
 11
146.573
 21
-99.4
 31
0.0
  0
POLYLINE
  8
0
 62
0
 70
0
 66
1
 10
0.0
 20
0.0
 30
0.0
  0
VERTEX
  8
0
 10
146.573
 20
-99.4
 30
0.0
  0
VERTEX
  8
0
 10
146.548
 20
-99.4
 30
0.0
  0
SEQEND
  8
0
  0
LINE
  8
0
 62
0
 10
146.548
 20
-99.4
 30
0.0
 11
145.348
 21
-99.4
 31
0.0
  0
LINE
  8
0
 62
0
 10
145.323
 20
-99.75
 30
0.0
 11
145.323
 21
-99.4
 31
0.0
  0
POLYLINE
  8
0
 62
0
 70
0
 66
1
 10
0.0
 20
0.0
 30
0.0
  0
VERTEX
  8
0
 10
145.323
 20
-99.4
 30
0.0
  0
VERTEX
  8
0
 10
145.348
 20
-99.4
 30
0.0
  0
SEQEND
  8
0
  0
LINE
  8
0
 62
0
 10
145.323
 20
-99.75
 30
0.0
 11
145.323
 21
-99.4
 31
0.0
  0
LINE
  8
0
 62
0
 10
146.548
 20
-101.4
 30
0.0
 11
146.548
 21
-101.05
 31
0.0
  0
LINE
  8
0
 62
0
 10
145.348
 20
-101.4
 30
0.0
 11
145.348
 21
-101.05
 31
0.0
  0
LINE
  8
0
 62
0
 10
145.368
 20
-101.05
 30
0.0
 11
145.368
 21
-99.75
 31
0.0
  0
LINE
  8
0
 62
0
 10
146.528
 20
-101.05
 30
0.0
 11
146.528
 21
-99.75
 31
0.0
  0
LINE
  8
0
 62
0
 10
146.548
 20
-99.75
 30
0.0
 11
146.548
 21
-99.4
 31
0.0
  0
LINE
  8
0
 62
0
 10
145.348
 20
-99.75
 30
0.0
 11
145.348
 21
-99.4
 31
0.0
  0
ENDBLK
  0
BLOCK
  8
0
  2
SHAPE2DVIEW011
 70
0
 10
0.0
 20
0.0
 30
0.0
  3
SHAPE2DVIEW011
  0
POLYLINE
  8
0
 62
0
 70
0
 66
1
 10
0.0
 20
0.0
 30
0.0
  0
VERTEX
  8
0
 10
154.803
 20
-101.159
 30
0.0
  0
VERTEX
  8
0
 10
154.778
 20
-101.159
 30
0.0
  0
SEQEND
  8
0
  0
LINE
  8
0
 62
0
 10
154.778
 20
-101.159
 30
0.0
 11
153.578
 21
-101.159
 31
0.0
  0
POLYLINE
  8
0
 62
0
 70
0
 66
1
 10
0.0
 20
0.0
 30
0.0
  0
VERTEX
  8
0
 10
153.553
 20
-101.159
 30
0.0
  0
VERTEX
  8
0
 10
153.578
 20
-101.159
 30
0.0
  0
SEQEND
  8
0
  0
LINE
  8
0
 62
0
 10
154.803
 20
-101.159
 30
0.0
 11
154.803
 21
-101.509
 31
0.0
  0
POLYLINE
  8
0
 62
0
 70
0
 66
1
 10
0.0
 20
0.0
 30
0.0
  0
VERTEX
  8
0
 10
154.803
 20
-101.509
 30
0.0
  0
VERTEX
  8
0
 10
154.778
 20
-101.509
 30
0.0
  0
SEQEND
  8
0
  0
LINE
  8
0
 62
0
 10
154.778
 20
-101.509
 30
0.0
 11
153.578
 21
-101.509
 31
0.0
  0
LINE
  8
0
 62
0
 10
153.553
 20
-101.159
 30
0.0
 11
153.553
 21
-101.509
 31
0.0
  0
POLYLINE
  8
0
 62
0
 70
0
 66
1
 10
0.0
 20
0.0
 30
0.0
  0
VERTEX
  8
0
 10
153.553
 20
-101.509
 30
0.0
  0
VERTEX
  8
0
 10
153.578
 20
-101.509
 30
0.0
  0
SEQEND
  8
0
  0
LINE
  8
0
 62
0
 10
153.553
 20
-101.159
 30
0.0
 11
153.553
 21
-101.509
 31
0.0
  0
LINE
  8
0
 62
0
 10
154.783
 20
-101.509
 30
0.0
 11
154.783
 21
-102.809
 31
0.0
  0
LINE
  8
0
 62
0
 10
153.573
 20
-101.509
 30
0.0
 11
153.573
 21
-102.809
 31
0.0
  0
POLYLINE
  8
0
 62
0
 70
0
 66
1
 10
0.0
 20
0.0
 30
0.0
  0
VERTEX
  8
0
 10
154.803
 20
-102.809
 30
0.0
  0
VERTEX
  8
0
 10
154.778
 20
-102.809
 30
0.0
  0
SEQEND
  8
0
  0
LINE
  8
0
 62
0
 10
154.778
 20
-102.809
 30
0.0
 11
153.578
 21
-102.809
 31
0.0
  0
POLYLINE
  8
0
 62
0
 70
0
 66
1
 10
0.0
 20
0.0
 30
0.0
  0
VERTEX
  8
0
 10
153.553
 20
-102.809
 30
0.0
  0
VERTEX
  8
0
 10
153.578
 20
-102.809
 30
0.0
  0
SEQEND
  8
0
  0
LINE
  8
0
 62
0
 10
154.803
 20
-102.809
 30
0.0
 11
154.803
 21
-103.159
 31
0.0
  0
POLYLINE
  8
0
 62
0
 70
0
 66
1
 10
0.0
 20
0.0
 30
0.0
  0
VERTEX
  8
0
 10
154.803
 20
-103.159
 30
0.0
  0
VERTEX
  8
0
 10
154.778
 20
-103.159
 30
0.0
  0
SEQEND
  8
0
  0
LINE
  8
0
 62
0
 10
154.778
 20
-103.159
 30
0.0
 11
153.578
 21
-103.159
 31
0.0
  0
LINE
  8
0
 62
0
 10
153.553
 20
-102.809
 30
0.0
 11
153.553
 21
-103.159
 31
0.0
  0
POLYLINE
  8
0
 62
0
 70
0
 66
1
 10
0.0
 20
0.0
 30
0.0
  0
VERTEX
  8
0
 10
153.553
 20
-103.159
 30
0.0
  0
VERTEX
  8
0
 10
153.578
 20
-103.159
 30
0.0
  0
SEQEND
  8
0
  0
LINE
  8
0
 62
0
 10
153.553
 20
-102.809
 30
0.0
 11
153.553
 21
-103.159
 31
0.0
  0
LINE
  8
0
 62
0
 10
154.778
 20
-101.159
 30
0.0
 11
154.778
 21
-101.509
 31
0.0
  0
LINE
  8
0
 62
0
 10
153.578
 20
-101.159
 30
0.0
 11
153.578
 21
-101.509
 31
0.0
  0
LINE
  8
0
 62
0
 10
154.758
 20
-101.509
 30
0.0
 11
154.758
 21
-102.809
 31
0.0
  0
LINE
  8
0
 62
0
 10
153.598
 20
-101.509
 30
0.0
 11
153.598
 21
-102.809
 31
0.0
  0
LINE
  8
0
 62
0
 10
154.778
 20
-102.809
 30
0.0
 11
154.778
 21
-103.159
 31
0.0
  0
LINE
  8
0
 62
0
 10
153.578
 20
-102.809
 30
0.0
 11
153.578
 21
-103.159
 31
0.0
  0
ENDBLK
  0
BLOCK
  8
0
  2
SHAPE2DVIEW012
 70
0
 10
0.0
 20
0.0
 30
0.0
  3
SHAPE2DVIEW012
  0
LINE
  8
0
 62
0
 10
148.825
 20
-99.375
 30
0.0
 11
147.975
 21
-99.375
 31
0.0
  0
POLYLINE
  8
0
 62
0
 70
0
 66
1
 10
0.0
 20
0.0
 30
0.0
  0
VERTEX
  8
0
 10
147.975
 20
-99.375
 30
0.0
  0
VERTEX
  8
0
 10
147.975
 20
-99.395
 30
0.0
  0
SEQEND
  8
0
  0
POLYLINE
  8
0
 62
0
 70
0
 66
1
 10
0.0
 20
0.0
 30
0.0
  0
VERTEX
  8
0
 10
148.825
 20
-99.375
 30
0.0
  0
VERTEX
  8
0
 10
148.825
 20
-99.395
 30
0.0
  0
SEQEND
  8
0
  0
LINE
  8
0
 62
0
 10
148.825
 20
-99.395
 30
0.0
 11
148.825
 21
-99.755
 31
0.0
  0
POLYLINE
  8
0
 62
0
 70
0
 66
1
 10
0.0
 20
0.0
 30
0.0
  0
VERTEX
  8
0
 10
148.825
 20
-99.775
 30
0.0
  0
VERTEX
  8
0
 10
148.825
 20
-99.755
 30
0.0
  0
SEQEND
  8
0
  0
LINE
  8
0
 62
0
 10
147.975
 20
-99.395
 30
0.0
 11
147.975
 21
-99.755
 31
0.0
  0
POLYLINE
  8
0
 62
0
 70
0
 66
1
 10
0.0
 20
0.0
 30
0.0
  0
VERTEX
  8
0
 10
147.975
 20
-99.775
 30
0.0
  0
VERTEX
  8
0
 10
147.975
 20
-99.755
 30
0.0
  0
SEQEND
  8
0
  0
LINE
  8
0
 62
0
 10
148.825
 20
-99.775
 30
0.0
 11
147.975
 21
-99.775
 31
0.0
  0
LINE
  8
0
 62
0
 10
148.825
 20
-98.625
 30
0.0
 11
148.825
 21
-99.375
 31
0.0
  0
LINE
  8
0
 62
0
 10
147.975
 20
-98.625
 30
0.0
 11
147.975
 21
-99.375
 31
0.0
  0
LINE
  8
0
 62
0
 10
148.825
 20
-98.245
 30
0.0
 11
148.825
 21
-98.605
 31
0.0
  0
POLYLINE
  8
0
 62
0
 70
0
 66
1
 10
0.0
 20
0.0
 30
0.0
  0
VERTEX
  8
0
 10
148.825
 20
-98.225
 30
0.0
  0
VERTEX
  8
0
 10
148.825
 20
-98.245
 30
0.0
  0
SEQEND
  8
0
  0
POLYLINE
  8
0
 62
0
 70
0
 66
1
 10
0.0
 20
0.0
 30
0.0
  0
VERTEX
  8
0
 10
148.825
 20
-98.625
 30
0.0
  0
VERTEX
  8
0
 10
148.825
 20
-98.605
 30
0.0
  0
SEQEND
  8
0
  0
LINE
  8
0
 62
0
 10
148.825
 20
-98.625
 30
0.0
 11
147.975
 21
-98.625
 31
0.0
  0
LINE
  8
0
 62
0
 10
147.975
 20
-98.245
 30
0.0
 11
147.975
 21
-98.605
 31
0.0
  0
POLYLINE
  8
0
 62
0
 70
0
 66
1
 10
0.0
 20
0.0
 30
0.0
  0
VERTEX
  8
0
 10
147.975
 20
-98.225
 30
0.0
  0
VERTEX
  8
0
 10
147.975
 20
-98.245
 30
0.0
  0
SEQEND
  8
0
  0
POLYLINE
  8
0
 62
0
 70
0
 66
1
 10
0.0
 20
0.0
 30
0.0
  0
VERTEX
  8
0
 10
147.975
 20
-98.625
 30
0.0
  0
VERTEX
  8
0
 10
147.975
 20
-98.605
 30
0.0
  0
SEQEND
  8
0
  0
LINE
  8
0
 62
0
 10
148.825
 20
-98.225
 30
0.0
 11
147.975
 21
-98.225
 31
0.0
  0
LINE
  8
0
 62
0
 10
148.825
 20
-99.395
 30
0.0
 11
147.975
 21
-99.395
 31
0.0
  0
LINE
  8
0
 62
0
 10
148.825
 20
-99.755
 30
0.0
 11
147.975
 21
-99.755
 31
0.0
  0
LINE
  8
0
 62
0
 10
148.825
 20
-98.245
 30
0.0
 11
147.975
 21
-98.245
 31
0.0
  0
LINE
  8
0
 62
0
 10
148.825
 20
-98.605
 30
0.0
 11
147.975
 21
-98.605
 31
0.0
  0
ENDBLK
  0
BLOCK
  8
0
  2
SHAPE2DVIEW001
 70
0
 10
0.0
 20
0.0
 30
0.0
  3
SHAPE2DVIEW001
  0
LINE
  8
0
 62
0
 10
147.63
 20
-101.189
 30
0.0
 11
147.64
 21
-101.189
 31
0.0
  0
LINE
  8
0
 62
0
 10
147.64
 20
-100.939
 30
0.0
 11
147.63
 21
-100.939
 31
0.0
  0
LINE
  8
0
 62
0
 10
147.63
 20
-100.939
 30
0.0
 11
147.63
 21
-101.189
 31
0.0
  0
LINE
  8
0
 62
0
 10
147.64
 20
-95.824
 30
0.0
 11
147.64
 21
-102.804
 31
0.0
  0
LINE
  8
0
 62
0
 10
147.64
 20
-95.824
 30
0.0
 11
154.62
 21
-95.824
 31
0.0
  0
LINE
  8
0
 62
0
 10
148.255
 20
-95.814
 30
0.0
 11
148.255
 21
-95.824
 31
0.0
  0
LINE
  8
0
 62
0
 10
147.64
 20
-96.439
 30
0.0
 11
147.63
 21
-96.439
 31
0.0
  0
LINE
  8
0
 62
0
 10
148.505
 20
-95.824
 30
0.0
 11
148.505
 21
-95.814
 31
0.0
  0
LINE
  8
0
 62
0
 10
147.63
 20
-96.689
 30
0.0
 11
147.64
 21
-96.689
 31
0.0
  0
LINE
  8
0
 62
0
 10
148.755
 20
-95.814
 30
0.0
 11
148.755
 21
-95.824
 31
0.0
  0
LINE
  8
0
 62
0
 10
147.64
 20
-96.939
 30
0.0
 11
147.63
 21
-96.939
 31
0.0
  0
LINE
  8
0
 62
0
 10
149.005
 20
-95.824
 30
0.0
 11
149.005
 21
-95.814
 31
0.0
  0
LINE
  8
0
 62
0
 10
147.63
 20
-97.189
 30
0.0
 11
147.64
 21
-97.189
 31
0.0
  0
LINE
  8
0
 62
0
 10
149.255
 20
-95.814
 30
0.0
 11
149.255
 21
-95.824
 31
0.0
  0
LINE
  8
0
 62
0
 10
147.64
 20
-97.439
 30
0.0
 11
147.63
 21
-97.439
 31
0.0
  0
LINE
  8
0
 62
0
 10
149.505
 20
-95.824
 30
0.0
 11
149.505
 21
-95.814
 31
0.0
  0
LINE
  8
0
 62
0
 10
147.63
 20
-97.689
 30
0.0
 11
147.64
 21
-97.689
 31
0.0
  0
LINE
  8
0
 62
0
 10
149.755
 20
-95.814
 30
0.0
 11
149.755
 21
-95.824
 31
0.0
  0
LINE
  8
0
 62
0
 10
147.64
 20
-97.939
 30
0.0
 11
147.63
 21
-97.939
 31
0.0
  0
LINE
  8
0
 62
0
 10
150.005
 20
-95.824
 30
0.0
 11
150.005
 21
-95.814
 31
0.0
  0
LINE
  8
0
 62
0
 10
147.63
 20
-98.189
 30
0.0
 11
147.64
 21
-98.189
 31
0.0
  0
LINE
  8
0
 62
0
 10
150.255
 20
-95.814
 30
0.0
 11
150.255
 21
-95.824
 31
0.0
  0
LINE
  8
0
 62
0
 10
147.64
 20
-98.439
 30
0.0
 11
147.63
 21
-98.439
 31
0.0
  0
LINE
  8
0
 62
0
 10
150.505
 20
-95.824
 30
0.0
 11
150.505
 21
-95.814
 31
0.0
  0
LINE
  8
0
 62
0
 10
147.63
 20
-98.689
 30
0.0
 11
147.64
 21
-98.689
 31
0.0
  0
LINE
  8
0
 62
0
 10
150.755
 20
-95.814
 30
0.0
 11
150.755
 21
-95.824
 31
0.0
  0
LINE
  8
0
 62
0
 10
147.64
 20
-98.939
 30
0.0
 11
147.63
 21
-98.939
 31
0.0
  0
LINE
  8
0
 62
0
 10
151.005
 20
-95.824
 30
0.0
 11
151.005
 21
-95.814
 31
0.0
  0
LINE
  8
0
 62
0
 10
147.63
 20
-99.189
 30
0.0
 11
147.64
 21
-99.189
 31
0.0
  0
LINE
  8
0
 62
0
 10
151.255
 20
-95.814
 30
0.0
 11
151.255
 21
-95.824
 31
0.0
  0
LINE
  8
0
 62
0
 10
147.64
 20
-99.439
 30
0.0
 11
147.63
 21
-99.439
 31
0.0
  0
LINE
  8
0
 62
0
 10
151.505
 20
-95.824
 30
0.0
 11
151.505
 21
-95.814
 31
0.0
  0
LINE
  8
0
 62
0
 10
147.63
 20
-99.689
 30
0.0
 11
147.64
 21
-99.689
 31
0.0
  0
LINE
  8
0
 62
0
 10
151.755
 20
-95.814
 30
0.0
 11
151.755
 21
-95.824
 31
0.0
  0
LINE
  8
0
 62
0
 10
147.64
 20
-99.939
 30
0.0
 11
147.63
 21
-99.939
 31
0.0
  0
LINE
  8
0
 62
0
 10
152.005
 20
-95.824
 30
0.0
 11
152.005
 21
-95.814
 31
0.0
  0
LINE
  8
0
 62
0
 10
147.63
 20
-100.189
 30
0.0
 11
147.64
 21
-100.189
 31
0.0
  0
LINE
  8
0
 62
0
 10
152.255
 20
-95.814
 30
0.0
 11
152.255
 21
-95.824
 31
0.0
  0
LINE
  8
0
 62
0
 10
147.64
 20
-100.439
 30
0.0
 11
147.63
 21
-100.439
 31
0.0
  0
LINE
  8
0
 62
0
 10
152.505
 20
-95.824
 30
0.0
 11
152.505
 21
-95.814
 31
0.0
  0
LINE
  8
0
 62
0
 10
147.63
 20
-100.689
 30
0.0
 11
147.64
 21
-100.689
 31
0.0
  0
LINE
  8
0
 62
0
 10
152.755
 20
-95.814
 30
0.0
 11
152.755
 21
-95.824
 31
0.0
  0
LINE
  8
0
 62
0
 10
153.005
 20
-95.824
 30
0.0
 11
153.005
 21
-95.814
 31
0.0
  0
LINE
  8
0
 62
0
 10
153.255
 20
-95.814
 30
0.0
 11
153.255
 21
-95.824
 31
0.0
  0
LINE
  8
0
 62
0
 10
147.64
 20
-101.439
 30
0.0
 11
147.63
 21
-101.439
 31
0.0
  0
LINE
  8
0
 62
0
 10
153.505
 20
-95.824
 30
0.0
 11
153.505
 21
-95.814
 31
0.0
  0
LINE
  8
0
 62
0
 10
147.63
 20
-101.689
 30
0.0
 11
147.64
 21
-101.689
 31
0.0
  0
LINE
  8
0
 62
0
 10
153.755
 20
-95.814
 30
0.0
 11
153.755
 21
-95.824
 31
0.0
  0
LINE
  8
0
 62
0
 10
147.64
 20
-101.939
 30
0.0
 11
147.63
 21
-101.939
 31
0.0
  0
LINE
  8
0
 62
0
 10
154.005
 20
-95.824
 30
0.0
 11
154.005
 21
-95.814
 31
0.0
  0
LINE
  8
0
 62
0
 10
147.63
 20
-102.189
 30
0.0
 11
147.64
 21
-102.189
 31
0.0
  0
LINE
  8
0
 62
0
 10
154.62
 20
-95.824
 30
0.0
 11
154.62
 21
-102.804
 31
0.0
  0
LINE
  8
0
 62
0
 10
154.62
 20
-102.189
 30
0.0
 11
154.62
 21
-101.939
 31
0.0
  0
LINE
  8
0
 62
0
 10
154.62
 20
-101.689
 30
0.0
 11
154.62
 21
-101.439
 31
0.0
  0
LINE
  8
0
 62
0
 10
154.62
 20
-101.189
 30
0.0
 11
154.62
 21
-100.939
 31
0.0
  0
LINE
  8
0
 62
0
 10
154.62
 20
-100.689
 30
0.0
 11
154.62
 21
-100.439
 31
0.0
  0
LINE
  8
0
 62
0
 10
154.62
 20
-100.189
 30
0.0
 11
154.62
 21
-99.939
 31
0.0
  0
LINE
  8
0
 62
0
 10
154.62
 20
-99.689
 30
0.0
 11
154.62
 21
-99.439
 31
0.0
  0
LINE
  8
0
 62
0
 10
154.62
 20
-99.189
 30
0.0
 11
154.62
 21
-98.939
 31
0.0
  0
LINE
  8
0
 62
0
 10
154.62
 20
-98.689
 30
0.0
 11
154.62
 21
-98.439
 31
0.0
  0
LINE
  8
0
 62
0
 10
154.62
 20
-98.189
 30
0.0
 11
154.62
 21
-97.939
 31
0.0
  0
LINE
  8
0
 62
0
 10
154.62
 20
-97.689
 30
0.0
 11
154.62
 21
-97.439
 31
0.0
  0
LINE
  8
0
 62
0
 10
154.62
 20
-97.189
 30
0.0
 11
154.62
 21
-96.939
 31
0.0
  0
LINE
  8
0
 62
0
 10
154.62
 20
-96.689
 30
0.0
 11
154.62
 21
-96.439
 31
0.0
  0
LINE
  8
0
 62
0
 10
147.64
 20
-102.804
 30
0.0
 11
154.62
 21
-102.804
 31
0.0
  0
LINE
  8
0
 62
0
 10
154.63
 20
-96.439
 30
0.0
 11
154.62
 21
-96.439
 31
0.0
  0
LINE
  8
0
 62
0
 10
148.255
 20
-102.804
 30
0.0
 11
148.255
 21
-102.814
 31
0.0
  0
LINE
  8
0
 62
0
 10
154.62
 20
-96.689
 30
0.0
 11
154.63
 21
-96.689
 31
0.0
  0
LINE
  8
0
 62
0
 10
148.505
 20
-102.814
 30
0.0
 11
148.505
 21
-102.804
 31
0.0
  0
LINE
  8
0
 62
0
 10
154.63
 20
-96.939
 30
0.0
 11
154.62
 21
-96.939
 31
0.0
  0
LINE
  8
0
 62
0
 10
148.755
 20
-102.804
 30
0.0
 11
148.755
 21
-102.814
 31
0.0
  0
LINE
  8
0
 62
0
 10
154.62
 20
-97.189
 30
0.0
 11
154.63
 21
-97.189
 31
0.0
  0
LINE
  8
0
 62
0
 10
149.005
 20
-102.814
 30
0.0
 11
149.005
 21
-102.804
 31
0.0
  0
LINE
  8
0
 62
0
 10
154.63
 20
-97.439
 30
0.0
 11
154.62
 21
-97.439
 31
0.0
  0
LINE
  8
0
 62
0
 10
149.255
 20
-102.804
 30
0.0
 11
149.255
 21
-102.814
 31
0.0
  0
LINE
  8
0
 62
0
 10
154.62
 20
-97.689
 30
0.0
 11
154.63
 21
-97.689
 31
0.0
  0
LINE
  8
0
 62
0
 10
149.505
 20
-102.814
 30
0.0
 11
149.505
 21
-102.804
 31
0.0
  0
LINE
  8
0
 62
0
 10
154.63
 20
-97.939
 30
0.0
 11
154.62
 21
-97.939
 31
0.0
  0
LINE
  8
0
 62
0
 10
149.755
 20
-102.804
 30
0.0
 11
149.755
 21
-102.814
 31
0.0
  0
LINE
  8
0
 62
0
 10
154.62
 20
-98.189
 30
0.0
 11
154.63
 21
-98.189
 31
0.0
  0
LINE
  8
0
 62
0
 10
150.005
 20
-102.814
 30
0.0
 11
150.005
 21
-102.804
 31
0.0
  0
LINE
  8
0
 62
0
 10
154.63
 20
-98.439
 30
0.0
 11
154.62
 21
-98.439
 31
0.0
  0
LINE
  8
0
 62
0
 10
150.255
 20
-102.804
 30
0.0
 11
150.255
 21
-102.814
 31
0.0
  0
LINE
  8
0
 62
0
 10
154.62
 20
-98.689
 30
0.0
 11
154.63
 21
-98.689
 31
0.0
  0
LINE
  8
0
 62
0
 10
150.505
 20
-102.814
 30
0.0
 11
150.505
 21
-102.804
 31
0.0
  0
LINE
  8
0
 62
0
 10
154.63
 20
-98.939
 30
0.0
 11
154.62
 21
-98.939
 31
0.0
  0
LINE
  8
0
 62
0
 10
150.755
 20
-102.804
 30
0.0
 11
150.755
 21
-102.814
 31
0.0
  0
LINE
  8
0
 62
0
 10
154.62
 20
-99.189
 30
0.0
 11
154.63
 21
-99.189
 31
0.0
  0
LINE
  8
0
 62
0
 10
151.005
 20
-102.814
 30
0.0
 11
151.005
 21
-102.804
 31
0.0
  0
LINE
  8
0
 62
0
 10
154.63
 20
-99.439
 30
0.0
 11
154.62
 21
-99.439
 31
0.0
  0
LINE
  8
0
 62
0
 10
151.255
 20
-102.804
 30
0.0
 11
151.255
 21
-102.814
 31
0.0
  0
LINE
  8
0
 62
0
 10
154.62
 20
-99.689
 30
0.0
 11
154.63
 21
-99.689
 31
0.0
  0
LINE
  8
0
 62
0
 10
151.505
 20
-102.814
 30
0.0
 11
151.505
 21
-102.804
 31
0.0
  0
LINE
  8
0
 62
0
 10
154.63
 20
-99.939
 30
0.0
 11
154.62
 21
-99.939
 31
0.0
  0
LINE
  8
0
 62
0
 10
151.755
 20
-102.804
 30
0.0
 11
151.755
 21
-102.814
 31
0.0
  0
LINE
  8
0
 62
0
 10
154.62
 20
-100.189
 30
0.0
 11
154.63
 21
-100.189
 31
0.0
  0
LINE
  8
0
 62
0
 10
152.005
 20
-102.814
 30
0.0
 11
152.005
 21
-102.804
 31
0.0
  0
LINE
  8
0
 62
0
 10
154.63
 20
-100.439
 30
0.0
 11
154.62
 21
-100.439
 31
0.0
  0
LINE
  8
0
 62
0
 10
152.255
 20
-102.804
 30
0.0
 11
152.255
 21
-102.814
 31
0.0
  0
LINE
  8
0
 62
0
 10
154.62
 20
-100.689
 30
0.0
 11
154.63
 21
-100.689
 31
0.0
  0
LINE
  8
0
 62
0
 10
152.505
 20
-102.814
 30
0.0
 11
152.505
 21
-102.804
 31
0.0
  0
LINE
  8
0
 62
0
 10
154.63
 20
-100.939
 30
0.0
 11
154.62
 21
-100.939
 31
0.0
  0
LINE
  8
0
 62
0
 10
152.755
 20
-102.804
 30
0.0
 11
152.755
 21
-102.814
 31
0.0
  0
LINE
  8
0
 62
0
 10
154.62
 20
-101.189
 30
0.0
 11
154.63
 21
-101.189
 31
0.0
  0
LINE
  8
0
 62
0
 10
153.005
 20
-102.814
 30
0.0
 11
153.005
 21
-102.804
 31
0.0
  0
LINE
  8
0
 62
0
 10
154.63
 20
-101.439
 30
0.0
 11
154.62
 21
-101.439
 31
0.0
  0
LINE
  8
0
 62
0
 10
153.255
 20
-102.804
 30
0.0
 11
153.255
 21
-102.814
 31
0.0
  0
LINE
  8
0
 62
0
 10
154.62
 20
-101.689
 30
0.0
 11
154.63
 21
-101.689
 31
0.0
  0
LINE
  8
0
 62
0
 10
153.505
 20
-102.814
 30
0.0
 11
153.505
 21
-102.804
 31
0.0
  0
LINE
  8
0
 62
0
 10
154.63
 20
-101.939
 30
0.0
 11
154.62
 21
-101.939
 31
0.0
  0
LINE
  8
0
 62
0
 10
153.755
 20
-102.804
 30
0.0
 11
153.755
 21
-102.814
 31
0.0
  0
LINE
  8
0
 62
0
 10
154.62
 20
-102.189
 30
0.0
 11
154.63
 21
-102.189
 31
0.0
  0
LINE
  8
0
 62
0
 10
154.005
 20
-102.814
 30
0.0
 11
154.005
 21
-102.804
 31
0.0
  0
CIRCLE
  8
0
 62
0
 10
148.33
 20
-96.514
 30
0.0
 40
0.25
  0
LINE
  8
0
 62
0
 10
147.63
 20
-96.439
 30
0.0
 11
147.63
 21
-96.689
 31
0.0
  0
LINE
  8
0
 62
0
 10
147.63
 20
-101.939
 30
0.0
 11
147.63
 21
-102.189
 31
0.0
  0
LINE
  8
0
 62
0
 10
147.63
 20
-96.939
 30
0.0
 11
147.63
 21
-97.189
 31
0.0
  0
LINE
  8
0
 62
0
 10
147.63
 20
-101.439
 30
0.0
 11
147.63
 21
-101.689
 31
0.0
  0
LINE
  8
0
 62
0
 10
147.63
 20
-97.439
 30
0.0
 11
147.63
 21
-97.689
 31
0.0
  0
LINE
  8
0
 62
0
 10
147.63
 20
-97.939
 30
0.0
 11
147.63
 21
-98.189
 31
0.0
  0
LINE
  8
0
 62
0
 10
147.63
 20
-100.439
 30
0.0
 11
147.63
 21
-100.689
 31
0.0
  0
LINE
  8
0
 62
0
 10
147.63
 20
-98.439
 30
0.0
 11
147.63
 21
-98.689
 31
0.0
  0
LINE
  8
0
 62
0
 10
147.63
 20
-99.939
 30
0.0
 11
147.63
 21
-100.189
 31
0.0
  0
LINE
  8
0
 62
0
 10
147.63
 20
-98.939
 30
0.0
 11
147.63
 21
-99.189
 31
0.0
  0
LINE
  8
0
 62
0
 10
147.63
 20
-99.439
 30
0.0
 11
147.63
 21
-99.689
 31
0.0
  0
LINE
  8
0
 62
0
 10
154.005
 20
-95.814
 30
0.0
 11
153.755
 21
-95.814
 31
0.0
  0
LINE
  8
0
 62
0
 10
148.505
 20
-95.814
 30
0.0
 11
148.255
 21
-95.814
 31
0.0
  0
LINE
  8
0
 62
0
 10
153.505
 20
-95.814
 30
0.0
 11
153.255
 21
-95.814
 31
0.0
  0
LINE
  8
0
 62
0
 10
149.005
 20
-95.814
 30
0.0
 11
148.755
 21
-95.814
 31
0.0
  0
LINE
  8
0
 62
0
 10
153.005
 20
-95.814
 30
0.0
 11
152.755
 21
-95.814
 31
0.0
  0
LINE
  8
0
 62
0
 10
149.505
 20
-95.814
 30
0.0
 11
149.255
 21
-95.814
 31
0.0
  0
LINE
  8
0
 62
0
 10
152.505
 20
-95.814
 30
0.0
 11
152.255
 21
-95.814
 31
0.0
  0
LINE
  8
0
 62
0
 10
150.005
 20
-95.814
 30
0.0
 11
149.755
 21
-95.814
 31
0.0
  0
LINE
  8
0
 62
0
 10
152.005
 20
-95.814
 30
0.0
 11
151.755
 21
-95.814
 31
0.0
  0
LINE
  8
0
 62
0
 10
150.505
 20
-95.814
 30
0.0
 11
150.255
 21
-95.814
 31
0.0
  0
LINE
  8
0
 62
0
 10
151.505
 20
-95.814
 30
0.0
 11
151.255
 21
-95.814
 31
0.0
  0
LINE
  8
0
 62
0
 10
151.005
 20
-95.814
 30
0.0
 11
150.755
 21
-95.814
 31
0.0
  0
LINE
  8
0
 62
0
 10
154.63
 20
-96.689
 30
0.0
 11
154.63
 21
-96.439
 31
0.0
  0
LINE
  8
0
 62
0
 10
154.63
 20
-102.189
 30
0.0
 11
154.63
 21
-101.939
 31
0.0
  0
LINE
  8
0
 62
0
 10
154.63
 20
-97.189
 30
0.0
 11
154.63
 21
-96.939
 31
0.0
  0
LINE
  8
0
 62
0
 10
154.63
 20
-101.689
 30
0.0
 11
154.63
 21
-101.439
 31
0.0
  0
LINE
  8
0
 62
0
 10
154.63
 20
-97.689
 30
0.0
 11
154.63
 21
-97.439
 31
0.0
  0
LINE
  8
0
 62
0
 10
154.63
 20
-101.189
 30
0.0
 11
154.63
 21
-100.939
 31
0.0
  0
LINE
  8
0
 62
0
 10
154.63
 20
-98.189
 30
0.0
 11
154.63
 21
-97.939
 31
0.0
  0
LINE
  8
0
 62
0
 10
154.63
 20
-100.689
 30
0.0
 11
154.63
 21
-100.439
 31
0.0
  0
LINE
  8
0
 62
0
 10
154.63
 20
-98.689
 30
0.0
 11
154.63
 21
-98.439
 31
0.0
  0
LINE
  8
0
 62
0
 10
154.63
 20
-100.189
 30
0.0
 11
154.63
 21
-99.939
 31
0.0
  0
LINE
  8
0
 62
0
 10
154.63
 20
-99.189
 30
0.0
 11
154.63
 21
-98.939
 31
0.0
  0
LINE
  8
0
 62
0
 10
154.63
 20
-99.689
 30
0.0
 11
154.63
 21
-99.439
 31
0.0
  0
LINE
  8
0
 62
0
 10
153.755
 20
-102.814
 30
0.0
 11
154.005
 21
-102.814
 31
0.0
  0
LINE
  8
0
 62
0
 10
148.255
 20
-102.814
 30
0.0
 11
148.505
 21
-102.814
 31
0.0
  0
LINE
  8
0
 62
0
 10
153.255
 20
-102.814
 30
0.0
 11
153.505
 21
-102.814
 31
0.0
  0
LINE
  8
0
 62
0
 10
148.755
 20
-102.814
 30
0.0
 11
149.005
 21
-102.814
 31
0.0
  0
LINE
  8
0
 62
0
 10
152.755
 20
-102.814
 30
0.0
 11
153.005
 21
-102.814
 31
0.0
  0
LINE
  8
0
 62
0
 10
149.255
 20
-102.814
 30
0.0
 11
149.505
 21
-102.814
 31
0.0
  0
LINE
  8
0
 62
0
 10
152.255
 20
-102.814
 30
0.0
 11
152.505
 21
-102.814
 31
0.0
  0
LINE
  8
0
 62
0
 10
149.755
 20
-102.814
 30
0.0
 11
150.005
 21
-102.814
 31
0.0
  0
LINE
  8
0
 62
0
 10
151.755
 20
-102.814
 30
0.0
 11
152.005
 21
-102.814
 31
0.0
  0
LINE
  8
0
 62
0
 10
150.255
 20
-102.814
 30
0.0
 11
150.505
 21
-102.814
 31
0.0
  0
LINE
  8
0
 62
0
 10
151.255
 20
-102.814
 30
0.0
 11
151.505
 21
-102.814
 31
0.0
  0
LINE
  8
0
 62
0
 10
150.755
 20
-102.814
 30
0.0
 11
151.005
 21
-102.814
 31
0.0
  0
ENDBLK
  0
BLOCK
  8
0
  2
SHAPE2DVIEW003
 70
0
 10
0.0
 20
0.0
 30
0.0
  3
SHAPE2DVIEW003
  0
LINE
  8
0
 62
0
 10
152.259408457
 20
-98.4093242287
 30
0.0
 11
152.259408457
 21
-97.0906757713
 31
0.0
  0
POLYLINE
  8
0
 62
0
 70
0
 66
1
 10
0.0
 20
0.0
 30
0.0
  0
VERTEX
  8
0
 10
152.259408457
 20
-97.0906757713
 30
0.0
  0
VERTEX
  8
0
 10
152.35076
 20
-97.045
 30
0.0
  0
SEQEND
  8
0
  0
LINE
  8
0
 62
0
 10
152.35076
 20
-98.455
 30
0.0
 11
152.35076
 21
-97.045
 31
0.0
  0
POLYLINE
  8
0
 62
0
 70
0
 66
1
 10
0.0
 20
0.0
 30
0.0
  0
VERTEX
  8
0
 10
152.259408457
 20
-98.4093242287
 30
0.0
  0
VERTEX
  8
0
 10
152.35076
 20
-98.455
 30
0.0
  0
SEQEND
  8
0
  0
LINE
  8
0
 62
0
 10
152.210084229
 20
-98.4586484574
 30
0.0
 11
152.259408457
 21
-98.4093242287
 31
0.0
  0
LINE
  8
0
 62
0
 10
149.591435771
 20
-98.4586484574
 30
0.0
 11
152.210084229
 21
-98.4586484574
 31
0.0
  0
LINE
  8
0
 62
0
 10
149.542111543
 20
-98.4093242287
 30
0.0
 11
149.591435771
 21
-98.4586484574
 31
0.0
  0
LINE
  8
0
 62
0
 10
149.542111543
 20
-97.0906757713
 30
0.0
 11
149.542111543
 21
-98.4093242287
 31
0.0
  0
LINE
  8
0
 62
0
 10
149.591435771
 20
-97.0413515426
 30
0.0
 11
149.542111543
 21
-97.0906757713
 31
0.0
  0
LINE
  8
0
 62
0
 10
152.210084229
 20
-97.0413515426
 30
0.0
 11
149.591435771
 21
-97.0413515426
 31
0.0
  0
LINE
  8
0
 62
0
 10
152.259408457
 20
-97.0906757713
 30
0.0
 11
152.210084229
 21
-97.0413515426
 31
0.0
  0
POLYLINE
  8
0
 62
0
 70
0
 66
1
 10
0.0
 20
0.0
 30
0.0
  0
VERTEX
  8
0
 10
152.210084229
 20
-97.0413515426
 30
0.0
  0
VERTEX
  8
0
 10
152.25576
 20
-96.95
 30
0.0
  0
SEQEND
  8
0
  0
LINE
  8
0
 62
0
 10
152.35076
 20
-97.045
 30
0.0
 11
152.25576
 21
-96.95
 31
0.0
  0
LINE
  8
0
 62
0
 10
152.25576
 20
-98.55
 30
0.0
 11
152.35076
 21
-98.455
 31
0.0
  0
POLYLINE
  8
0
 62
0
 70
0
 66
1
 10
0.0
 20
0.0
 30
0.0
  0
VERTEX
  8
0
 10
152.210084229
 20
-98.4586484574
 30
0.0
  0
VERTEX
  8
0
 10
152.25576
 20
-98.55
 30
0.0
  0
SEQEND
  8
0
  0
POLYLINE
  8
0
 62
0
 70
0
 66
1
 10
0.0
 20
0.0
 30
0.0
  0
VERTEX
  8
0
 10
149.591435771
 20
-97.0413515426
 30
0.0
  0
VERTEX
  8
0
 10
149.54576
 20
-96.95
 30
0.0
  0
SEQEND
  8
0
  0
LINE
  8
0
 62
0
 10
150.65076
 20
-96.95
 30
0.0
 11
149.54576
 21
-96.95
 31
0.0
  0
LINE
  8
0
 62
0
 10
151.15076
 20
-96.95
 30
0.0
 11
150.65076
 21
-96.95
 31
0.0
  0
LINE
  8
0
 62
0
 10
152.25576
 20
-96.95
 30
0.0
 11
151.15076
 21
-96.95
 31
0.0
  0
POLYLINE
  8
0
 62
0
 70
0
 66
1
 10
0.0
 20
0.0
 30
0.0
  0
VERTEX
  8
0
 10
149.542111543
 20
-97.0906757713
 30
0.0
  0
VERTEX
  8
0
 10
149.45076
 20
-97.045
 30
0.0
  0
SEQEND
  8
0
  0
LINE
  8
0
 62
0
 10
149.54576
 20
-96.95
 30
0.0
 11
149.45076
 21
-97.045
 31
0.0
  0
POLYLINE
  8
0
 62
0
 70
0
 66
1
 10
0.0
 20
0.0
 30
0.0
  0
VERTEX
  8
0
 10
149.542111543
 20
-98.4093242287
 30
0.0
  0
VERTEX
  8
0
 10
149.45076
 20
-98.455
 30
0.0
  0
SEQEND
  8
0
  0
LINE
  8
0
 62
0
 10
149.45076
 20
-97.045
 30
0.0
 11
149.45076
 21
-98.455
 31
0.0
  0
POLYLINE
  8
0
 62
0
 70
0
 66
1
 10
0.0
 20
0.0
 30
0.0
  0
VERTEX
  8
0
 10
149.591435771
 20
-98.4586484574
 30
0.0
  0
VERTEX
  8
0
 10
149.54576
 20
-98.55
 30
0.0
  0
SEQEND
  8
0
  0
LINE
  8
0
 62
0
 10
149.45076
 20
-98.455
 30
0.0
 11
149.54576
 21
-98.55
 31
0.0
  0
LINE
  8
0
 62
0
 10
152.10076
 20
-98.55
 30
0.0
 11
152.25576
 21
-98.55
 31
0.0
  0
LINE
  8
0
 62
0
 10
151.60076
 20
-98.55
 30
0.0
 11
152.10076
 21
-98.55
 31
0.0
  0
LINE
  8
0
 62
0
 10
150.20076
 20
-98.55
 30
0.0
 11
151.60076
 21
-98.55
 31
0.0
  0
LINE
  8
0
 62
0
 10
149.70076
 20
-98.55
 30
0.0
 11
150.20076
 21
-98.55
 31
0.0
  0
LINE
  8
0
 62
0
 10
149.54576
 20
-98.55
 30
0.0
 11
149.70076
 21
-98.55
 31
0.0
  0
LINE
  8
0
 62
0
 10
151.15076
 20
-96.95
 30
0.0
 11
151.15076
 21
-96.9
 31
0.0
  0
LINE
  8
0
 62
0
 10
150.65076
 20
-96.95
 30
0.0
 11
150.65076
 21
-96.9
 31
0.0
  0
LINE
  8
0
 62
0
 10
149.70076
 20
-98.55
 30
0.0
 11
149.70076
 21
-98.6
 31
0.0
  0
LINE
  8
0
 62
0
 10
150.20076
 20
-98.55
 30
0.0
 11
150.20076
 21
-98.6
 31
0.0
  0
LINE
  8
0
 62
0
 10
151.60076
 20
-98.55
 30
0.0
 11
151.60076
 21
-98.6
 31
0.0
  0
LINE
  8
0
 62
0
 10
152.10076
 20
-98.55
 30
0.0
 11
152.10076
 21
-98.6
 31
0.0
  0
POLYLINE
  8
0
 62
0
 70
0
 66
1
 10
0.0
 20
0.0
 30
0.0
  0
VERTEX
  8
0
 10
151.15076
 20
-96.9
 30
0.0
  0
VERTEX
  8
0
 10
151.15076
 20
-96.8
 30
0.0
  0
SEQEND
  8
0
  0
POLYLINE
  8
0
 62
0
 70
0
 66
1
 10
0.0
 20
0.0
 30
0.0
  0
VERTEX
  8
0
 10
151.15076
 20
-96.8
 30
0.0
  0
VERTEX
  8
0
 10
151.15076
 20
-96.55
 30
0.0
  0
SEQEND
  8
0
  0
LINE
  8
0
 62
0
 10
151.15076
 20
-96.55
 30
0.0
 11
151.15076
 21
-96.35
 31
0.0
  0
POLYLINE
  8
0
 62
0
 70
0
 66
1
 10
0.0
 20
0.0
 30
0.0
  0
VERTEX
  8
0
 10
151.15076
 20
-96.65
 30
0.0
  0
VERTEX
  8
0
 10
151.15076
 20
-96.9
 30
0.0
  0
SEQEND
  8
0
  0
POLYLINE
  8
0
 62
0
 70
0
 66
1
 10
0.0
 20
0.0
 30
0.0
  0
VERTEX
  8
0
 10
150.65076
 20
-96.9
 30
0.0
  0
VERTEX
  8
0
 10
150.65076
 20
-96.8
 30
0.0
  0
SEQEND
  8
0
  0
POLYLINE
  8
0
 62
0
 70
0
 66
1
 10
0.0
 20
0.0
 30
0.0
  0
VERTEX
  8
0
 10
150.65076
 20
-96.8
 30
0.0
  0
VERTEX
  8
0
 10
150.65076
 20
-96.55
 30
0.0
  0
SEQEND
  8
0
  0
LINE
  8
0
 62
0
 10
150.65076
 20
-96.55
 30
0.0
 11
150.65076
 21
-96.35
 31
0.0
  0
POLYLINE
  8
0
 62
0
 70
0
 66
1
 10
0.0
 20
0.0
 30
0.0
  0
VERTEX
  8
0
 10
150.65076
 20
-96.65
 30
0.0
  0
VERTEX
  8
0
 10
150.65076
 20
-96.9
 30
0.0
  0
SEQEND
  8
0
  0
LINE
  8
0
 62
0
 10
151.15076
 20
-96.8
 30
0.0
 11
150.65076
 21
-96.8
 31
0.0
  0
POLYLINE
  8
0
 62
0
 70
0
 66
1
 10
0.0
 20
0.0
 30
0.0
  0
VERTEX
  8
0
 10
149.70076
 20
-98.6
 30
0.0
  0
VERTEX
  8
0
 10
149.70076
 20
-98.7
 30
0.0
  0
SEQEND
  8
0
  0
POLYLINE
  8
0
 62
0
 70
0
 66
1
 10
0.0
 20
0.0
 30
0.0
  0
VERTEX
  8
0
 10
149.70076
 20
-98.7
 30
0.0
  0
VERTEX
  8
0
 10
149.70076
 20
-98.95
 30
0.0
  0
SEQEND
  8
0
  0
LINE
  8
0
 62
0
 10
149.70076
 20
-98.95
 30
0.0
 11
149.70076
 21
-99.15
 31
0.0
  0
POLYLINE
  8
0
 62
0
 70
0
 66
1
 10
0.0
 20
0.0
 30
0.0
  0
VERTEX
  8
0
 10
149.70076
 20
-98.85
 30
0.0
  0
VERTEX
  8
0
 10
149.70076
 20
-98.6
 30
0.0
  0
SEQEND
  8
0
  0
POLYLINE
  8
0
 62
0
 70
0
 66
1
 10
0.0
 20
0.0
 30
0.0
  0
VERTEX
  8
0
 10
152.10076
 20
-98.6
 30
0.0
  0
VERTEX
  8
0
 10
152.10076
 20
-98.7
 30
0.0
  0
SEQEND
  8
0
  0
POLYLINE
  8
0
 62
0
 70
0
 66
1
 10
0.0
 20
0.0
 30
0.0
  0
VERTEX
  8
0
 10
152.10076
 20
-98.7
 30
0.0
  0
VERTEX
  8
0
 10
152.10076
 20
-98.95
 30
0.0
  0
SEQEND
  8
0
  0
LINE
  8
0
 62
0
 10
152.10076
 20
-98.95
 30
0.0
 11
152.10076
 21
-99.15
 31
0.0
  0
POLYLINE
  8
0
 62
0
 70
0
 66
1
 10
0.0
 20
0.0
 30
0.0
  0
VERTEX
  8
0
 10
152.10076
 20
-98.85
 30
0.0
  0
VERTEX
  8
0
 10
152.10076
 20
-98.6
 30
0.0
  0
SEQEND
  8
0
  0
POLYLINE
  8
0
 62
0
 70
0
 66
1
 10
0.0
 20
0.0
 30
0.0
  0
VERTEX
  8
0
 10
150.20076
 20
-98.6
 30
0.0
  0
VERTEX
  8
0
 10
150.20076
 20
-98.7
 30
0.0
  0
SEQEND
  8
0
  0
LINE
  8
0
 62
0
 10
149.70076
 20
-98.7
 30
0.0
 11
150.20076
 21
-98.7
 31
0.0
  0
POLYLINE
  8
0
 62
0
 70
0
 66
1
 10
0.0
 20
0.0
 30
0.0
  0
VERTEX
  8
0
 10
150.20076
 20
-98.7
 30
0.0
  0
VERTEX
  8
0
 10
150.20076
 20
-98.95
 30
0.0
  0
SEQEND
  8
0
  0
LINE
  8
0
 62
0
 10
150.20076
 20
-98.95
 30
0.0
 11
150.20076
 21
-99.15
 31
0.0
  0
POLYLINE
  8
0
 62
0
 70
0
 66
1
 10
0.0
 20
0.0
 30
0.0
  0
VERTEX
  8
0
 10
150.20076
 20
-98.85
 30
0.0
  0
VERTEX
  8
0
 10
150.20076
 20
-98.6
 30
0.0
  0
SEQEND
  8
0
  0
POLYLINE
  8
0
 62
0
 70
0
 66
1
 10
0.0
 20
0.0
 30
0.0
  0
VERTEX
  8
0
 10
151.60076
 20
-98.6
 30
0.0
  0
VERTEX
  8
0
 10
151.60076
 20
-98.7
 30
0.0
  0
SEQEND
  8
0
  0
POLYLINE
  8
0
 62
0
 70
0
 66
1
 10
0.0
 20
0.0
 30
0.0
  0
VERTEX
  8
0
 10
151.60076
 20
-98.7
 30
0.0
  0
VERTEX
  8
0
 10
151.60076
 20
-98.95
 30
0.0
  0
SEQEND
  8
0
  0
LINE
  8
0
 62
0
 10
151.60076
 20
-98.95
 30
0.0
 11
151.60076
 21
-99.15
 31
0.0
  0
POLYLINE
  8
0
 62
0
 70
0
 66
1
 10
0.0
 20
0.0
 30
0.0
  0
VERTEX
  8
0
 10
151.60076
 20
-98.85
 30
0.0
  0
VERTEX
  8
0
 10
151.60076
 20
-98.6
 30
0.0
  0
SEQEND
  8
0
  0
LINE
  8
0
 62
0
 10
151.60076
 20
-98.7
 30
0.0
 11
152.10076
 21
-98.7
 31
0.0
  0
LINE
  8
0
 62
0
 10
151.15076
 20
-96.35
 30
0.0
 11
150.65076
 21
-96.35
 31
0.0
  0
LINE
  8
0
 62
0
 10
151.15076
 20
-96.8
 30
0.0
 11
150.65076
 21
-96.8
 31
0.0
  0
LINE
  8
0
 62
0
 10
149.70076
 20
-99.15
 30
0.0
 11
150.20076
 21
-99.15
 31
0.0
  0
LINE
  8
0
 62
0
 10
149.70076
 20
-98.7
 30
0.0
 11
150.20076
 21
-98.7
 31
0.0
  0
LINE
  8
0
 62
0
 10
151.60076
 20
-99.15
 30
0.0
 11
152.10076
 21
-99.15
 31
0.0
  0
LINE
  8
0
 62
0
 10
151.60076
 20
-98.7
 30
0.0
 11
152.10076
 21
-98.7
 31
0.0
  0
LINE
  8
0
 62
0
 10
151.15076
 20
-96.9
 30
0.0
 11
150.65076
 21
-96.9
 31
0.0
  0
LINE
  8
0
 62
0
 10
149.70076
 20
-98.6
 30
0.0
 11
150.20076
 21
-98.6
 31
0.0
  0
LINE
  8
0
 62
0
 10
151.60076
 20
-98.6
 30
0.0
 11
152.10076
 21
-98.6
 31
0.0
  0
LINE
  8
0
 62
0
 10
151.15076
 20
-96.55
 30
0.0
 11
150.65076
 21
-96.55
 31
0.0
  0
LINE
  8
0
 62
0
 10
149.70076
 20
-98.95
 30
0.0
 11
150.20076
 21
-98.95
 31
0.0
  0
LINE
  8
0
 62
0
 10
151.60076
 20
-98.95
 30
0.0
 11
152.10076
 21
-98.95
 31
0.0
  0
ENDBLK
  0
BLOCK
  8
0
  2
SHAPE2DVIEW004
 70
0
 10
0.0
 20
0.0
 30
0.0
  3
SHAPE2DVIEW004
  0
POLYLINE
  8
0
 62
0
 70
0
 66
1
 10
0.0
 20
0.0
 30
0.0
  0
VERTEX
  8
0
 10
157.749
 20
-99.1424
 30
0.0
  0
VERTEX
  8
0
 10
157.499
 20
-99.1424
 30
0.0
  0
SEQEND
  8
0
  0
LINE
  8
0
 62
0
 10
157.299
 20
-99.1424
 30
0.0
 11
157.499
 21
-99.1424
 31
0.0
  0
POLYLINE
  8
0
 62
0
 70
0
 66
1
 10
0.0
 20
0.0
 30
0.0
  0
VERTEX
  8
0
 10
157.499
 20
-99.1424
 30
0.0
  0
VERTEX
  8
0
 10
157.599
 20
-99.1424
 30
0.0
  0
SEQEND
  8
0
  0
POLYLINE
  8
0
 62
0
 70
0
 66
1
 10
0.0
 20
0.0
 30
0.0
  0
VERTEX
  8
0
 10
157.599
 20
-99.1424
 30
0.0
  0
VERTEX
  8
0
 10
157.849
 20
-99.1424
 30
0.0
  0
SEQEND
  8
0
  0
LINE
  8
0
 62
0
 10
157.849
 20
-99.1424
 30
0.0
 11
157.899
 21
-99.1424
 31
0.0
  0
POLYLINE
  8
0
 62
0
 70
0
 66
1
 10
0.0
 20
0.0
 30
0.0
  0
VERTEX
  8
0
 10
157.749
 20
-98.6424
 30
0.0
  0
VERTEX
  8
0
 10
157.499
 20
-98.6424
 30
0.0
  0
SEQEND
  8
0
  0
LINE
  8
0
 62
0
 10
157.299
 20
-98.6424
 30
0.0
 11
157.499
 21
-98.6424
 31
0.0
  0
POLYLINE
  8
0
 62
0
 70
0
 66
1
 10
0.0
 20
0.0
 30
0.0
  0
VERTEX
  8
0
 10
157.499
 20
-98.6424
 30
0.0
  0
VERTEX
  8
0
 10
157.599
 20
-98.6424
 30
0.0
  0
SEQEND
  8
0
  0
POLYLINE
  8
0
 62
0
 70
0
 66
1
 10
0.0
 20
0.0
 30
0.0
  0
VERTEX
  8
0
 10
157.599
 20
-98.6424
 30
0.0
  0
VERTEX
  8
0
 10
157.849
 20
-98.6424
 30
0.0
  0
SEQEND
  8
0
  0
LINE
  8
0
 62
0
 10
157.849
 20
-98.6424
 30
0.0
 11
157.899
 21
-98.6424
 31
0.0
  0
LINE
  8
0
 62
0
 10
157.899
 20
-99.2974
 30
0.0
 11
157.899
 21
-99.1424
 31
0.0
  0
LINE
  8
0
 62
0
 10
157.924
 20
-99.1424
 30
0.0
 11
157.924
 21
-98.6424
 31
0.0
  0
LINE
  8
0
 62
0
 10
157.599
 20
-99.1424
 30
0.0
 11
157.599
 21
-98.6424
 31
0.0
  0
LINE
  8
0
 62
0
 10
157.599
 20
-99.1424
 30
0.0
 11
157.599
 21
-98.6424
 31
0.0
  0
LINE
  8
0
 62
0
 10
157.299
 20
-99.1424
 30
0.0
 11
157.299
 21
-98.6424
 31
0.0
  0
LINE
  8
0
 62
0
 10
157.899
 20
-98.6424
 30
0.0
 11
157.899
 21
-98.1924
 31
0.0
  0
LINE
  8
0
 62
0
 10
157.899
 20
-96.7424
 30
0.0
 11
157.899
 21
-96.5874
 31
0.0
  0
LINE
  8
0
 62
0
 10
157.899
 20
-97.6924
 30
0.0
 11
157.899
 21
-97.2424
 31
0.0
  0
LINE
  8
0
 62
0
 10
157.994
 20
-99.3924
 30
0.0
 11
157.899
 21
-99.2974
 31
0.0
  0
LINE
  8
0
 62
0
 10
157.924
 20
-99.2849
 30
0.0
 11
157.924
 21
-99.1424
 31
0.0
  0
LINE
  8
0
 62
0
 10
157.924
 20
-98.6424
 30
0.0
 11
157.924
 21
-98.1924
 31
0.0
  0
LINE
  8
0
 62
0
 10
157.924
 20
-98.1924
 30
0.0
 11
157.924
 21
-97.6924
 31
0.0
  0
LINE
  8
0
 62
0
 10
157.924
 20
-97.6924
 30
0.0
 11
157.924
 21
-97.2424
 31
0.0
  0
LINE
  8
0
 62
0
 10
157.924
 20
-97.2424
 30
0.0
 11
157.924
 21
-96.7424
 31
0.0
  0
LINE
  8
0
 62
0
 10
157.924
 20
-96.7424
 30
0.0
 11
157.924
 21
-96.5999
 31
0.0
  0
POLYLINE
  8
0
 62
0
 70
0
 66
1
 10
0.0
 20
0.0
 30
0.0
  0
VERTEX
  8
0
 10
157.924
 20
-96.5999
 30
0.0
  0
VERTEX
  8
0
 10
158.015351543
 20
-96.6455757713
 30
0.0
  0
SEQEND
  8
0
  0
LINE
  8
0
 62
0
 10
158.015351543
 20
-99.2392242287
 30
0.0
 11
158.015351543
 21
-96.6455757713
 31
0.0
  0
POLYLINE
  8
0
 62
0
 70
0
 66
1
 10
0.0
 20
0.0
 30
0.0
  0
VERTEX
  8
0
 10
157.924
 20
-99.2849
 30
0.0
  0
VERTEX
  8
0
 10
158.015351543
 20
-99.2392242287
 30
0.0
  0
SEQEND
  8
0
  0
POLYLINE
  8
0
 62
0
 70
0
 66
1
 10
0.0
 20
0.0
 30
0.0
  0
VERTEX
  8
0
 10
157.749
 20
-98.1924
 30
0.0
  0
VERTEX
  8
0
 10
157.499
 20
-98.1924
 30
0.0
  0
SEQEND
  8
0
  0
LINE
  8
0
 62
0
 10
157.299
 20
-98.1924
 30
0.0
 11
157.499
 21
-98.1924
 31
0.0
  0
POLYLINE
  8
0
 62
0
 70
0
 66
1
 10
0.0
 20
0.0
 30
0.0
  0
VERTEX
  8
0
 10
157.499
 20
-98.1924
 30
0.0
  0
VERTEX
  8
0
 10
157.599
 20
-98.1924
 30
0.0
  0
SEQEND
  8
0
  0
POLYLINE
  8
0
 62
0
 70
0
 66
1
 10
0.0
 20
0.0
 30
0.0
  0
VERTEX
  8
0
 10
157.599
 20
-98.1924
 30
0.0
  0
VERTEX
  8
0
 10
157.849
 20
-98.1924
 30
0.0
  0
SEQEND
  8
0
  0
LINE
  8
0
 62
0
 10
157.849
 20
-98.1924
 30
0.0
 11
157.899
 21
-98.1924
 31
0.0
  0
LINE
  8
0
 62
0
 10
157.899
 20
-96.5874
 30
0.0
 11
157.994
 21
-96.4924
 31
0.0
  0
POLYLINE
  8
0
 62
0
 70
0
 66
1
 10
0.0
 20
0.0
 30
0.0
  0
VERTEX
  8
0
 10
157.749
 20
-96.7424
 30
0.0
  0
VERTEX
  8
0
 10
157.499
 20
-96.7424
 30
0.0
  0
SEQEND
  8
0
  0
LINE
  8
0
 62
0
 10
157.299
 20
-96.7424
 30
0.0
 11
157.499
 21
-96.7424
 31
0.0
  0
POLYLINE
  8
0
 62
0
 70
0
 66
1
 10
0.0
 20
0.0
 30
0.0
  0
VERTEX
  8
0
 10
157.499
 20
-96.7424
 30
0.0
  0
VERTEX
  8
0
 10
157.599
 20
-96.7424
 30
0.0
  0
SEQEND
  8
0
  0
POLYLINE
  8
0
 62
0
 70
0
 66
1
 10
0.0
 20
0.0
 30
0.0
  0
VERTEX
  8
0
 10
157.599
 20
-96.7424
 30
0.0
  0
VERTEX
  8
0
 10
157.849
 20
-96.7424
 30
0.0
  0
SEQEND
  8
0
  0
LINE
  8
0
 62
0
 10
157.849
 20
-96.7424
 30
0.0
 11
157.899
 21
-96.7424
 31
0.0
  0
POLYLINE
  8
0
 62
0
 70
0
 66
1
 10
0.0
 20
0.0
 30
0.0
  0
VERTEX
  8
0
 10
157.749
 20
-97.2424
 30
0.0
  0
VERTEX
  8
0
 10
157.499
 20
-97.2424
 30
0.0
  0
SEQEND
  8
0
  0
LINE
  8
0
 62
0
 10
157.299
 20
-97.2424
 30
0.0
 11
157.499
 21
-97.2424
 31
0.0
  0
POLYLINE
  8
0
 62
0
 70
0
 66
1
 10
0.0
 20
0.0
 30
0.0
  0
VERTEX
  8
0
 10
157.499
 20
-97.2424
 30
0.0
  0
VERTEX
  8
0
 10
157.599
 20
-97.2424
 30
0.0
  0
SEQEND
  8
0
  0
POLYLINE
  8
0
 62
0
 70
0
 66
1
 10
0.0
 20
0.0
 30
0.0
  0
VERTEX
  8
0
 10
157.599
 20
-97.2424
 30
0.0
  0
VERTEX
  8
0
 10
157.849
 20
-97.2424
 30
0.0
  0
SEQEND
  8
0
  0
LINE
  8
0
 62
0
 10
157.849
 20
-97.2424
 30
0.0
 11
157.899
 21
-97.2424
 31
0.0
  0
POLYLINE
  8
0
 62
0
 70
0
 66
1
 10
0.0
 20
0.0
 30
0.0
  0
VERTEX
  8
0
 10
157.749
 20
-97.6924
 30
0.0
  0
VERTEX
  8
0
 10
157.499
 20
-97.6924
 30
0.0
  0
SEQEND
  8
0
  0
LINE
  8
0
 62
0
 10
157.299
 20
-97.6924
 30
0.0
 11
157.499
 21
-97.6924
 31
0.0
  0
POLYLINE
  8
0
 62
0
 70
0
 66
1
 10
0.0
 20
0.0
 30
0.0
  0
VERTEX
  8
0
 10
157.499
 20
-97.6924
 30
0.0
  0
VERTEX
  8
0
 10
157.599
 20
-97.6924
 30
0.0
  0
SEQEND
  8
0
  0
POLYLINE
  8
0
 62
0
 70
0
 66
1
 10
0.0
 20
0.0
 30
0.0
  0
VERTEX
  8
0
 10
157.599
 20
-97.6924
 30
0.0
  0
VERTEX
  8
0
 10
157.849
 20
-97.6924
 30
0.0
  0
SEQEND
  8
0
  0
LINE
  8
0
 62
0
 10
157.849
 20
-97.6924
 30
0.0
 11
157.899
 21
-97.6924
 31
0.0
  0
LINE
  8
0
 62
0
 10
158.0065
 20
-99.3674
 30
0.0
 11
157.924
 21
-99.2849
 31
0.0
  0
LINE
  8
0
 62
0
 10
159.404
 20
-99.3924
 30
0.0
 11
157.994
 21
-99.3924
 31
0.0
  0
LINE
  8
0
 62
0
 10
158.052175771
 20
-99.2760484574
 30
0.0
 11
158.015351543
 21
-99.2392242287
 31
0.0
  0
POLYLINE
  8
0
 62
0
 70
0
 66
1
 10
0.0
 20
0.0
 30
0.0
  0
VERTEX
  8
0
 10
158.0065
 20
-99.3674
 30
0.0
  0
VERTEX
  8
0
 10
158.052175771
 20
-99.2760484574
 30
0.0
  0
SEQEND
  8
0
  0
LINE
  8
0
 62
0
 10
159.345824229
 20
-99.2760484574
 30
0.0
 11
158.052175771
 21
-99.2760484574
 31
0.0
  0
LINE
  8
0
 62
0
 10
159.382648457
 20
-99.2392242287
 30
0.0
 11
159.345824229
 21
-99.2760484574
 31
0.0
  0
LINE
  8
0
 62
0
 10
159.382648457
 20
-96.6455757713
 30
0.0
 11
159.382648457
 21
-99.2392242287
 31
0.0
  0
LINE
  8
0
 62
0
 10
159.345824229
 20
-96.6087515426
 30
0.0
 11
159.382648457
 21
-96.6455757713
 31
0.0
  0
LINE
  8
0
 62
0
 10
158.052175771
 20
-96.6087515426
 30
0.0
 11
159.345824229
 21
-96.6087515426
 31
0.0
  0
LINE
  8
0
 62
0
 10
158.015351543
 20
-96.6455757713
 30
0.0
 11
158.052175771
 21
-96.6087515426
 31
0.0
  0
CIRCLE
  8
0
 62
0
 10
159.032648457
 20
-98.9260484574
 30
0.0
 40
0.125
  0
LINE
  8
0
 62
0
 10
157.924
 20
-96.5999
 30
0.0
 11
158.0065
 21
-96.5174
 31
0.0
  0
POLYLINE
  8
0
 62
0
 70
0
 66
1
 10
0.0
 20
0.0
 30
0.0
  0
VERTEX
  8
0
 10
158.0065
 20
-96.5174
 30
0.0
  0
VERTEX
  8
0
 10
158.052175771
 20
-96.6087515426
 30
0.0
  0
SEQEND
  8
0
  0
LINE
  8
0
 62
0
 10
157.599
 20
-98.1924
 30
0.0
 11
157.599
 21
-97.6924
 31
0.0
  0
LINE
  8
0
 62
0
 10
157.599
 20
-98.1924
 30
0.0
 11
157.599
 21
-97.6924
 31
0.0
  0
LINE
  8
0
 62
0
 10
157.299
 20
-98.1924
 30
0.0
 11
157.299
 21
-97.6924
 31
0.0
  0
LINE
  8
0
 62
0
 10
157.994
 20
-96.4924
 30
0.0
 11
159.404
 21
-96.4924
 31
0.0
  0
LINE
  8
0
 62
0
 10
159.404
 20
-96.4924
 30
0.0
 11
159.499
 21
-96.5874
 31
0.0
  0
LINE
  8
0
 62
0
 10
159.499
 20
-96.5874
 30
0.0
 11
159.499
 21
-96.7424
 31
0.0
  0
LINE
  8
0
 62
0
 10
159.499
 20
-99.1424
 30
0.0
 11
159.499
 21
-99.2974
 31
0.0
  0
LINE
  8
0
 62
0
 10
159.499
 20
-97.2424
 30
0.0
 11
159.499
 21
-97.6924
 31
0.0
  0
LINE
  8
0
 62
0
 10
159.499
 20
-98.1924
 30
0.0
 11
159.499
 21
-98.6424
 31
0.0
  0
LINE
  8
0
 62
0
 10
159.499
 20
-99.2974
 30
0.0
 11
159.404
 21
-99.3924
 31
0.0
  0
LINE
  8
0
 62
0
 10
157.599
 20
-97.2424
 30
0.0
 11
157.599
 21
-96.7424
 31
0.0
  0
LINE
  8
0
 62
0
 10
157.599
 20
-97.2424
 30
0.0
 11
157.599
 21
-96.7424
 31
0.0
  0
LINE
  8
0
 62
0
 10
157.299
 20
-97.2424
 30
0.0
 11
157.299
 21
-96.7424
 31
0.0
  0
LINE
  8
0
 62
0
 10
159.3915
 20
-99.3674
 30
0.0
 11
158.0065
 21
-99.3674
 31
0.0
  0
POLYLINE
  8
0
 62
0
 70
0
 66
1
 10
0.0
 20
0.0
 30
0.0
  0
VERTEX
  8
0
 10
159.3915
 20
-99.3674
 30
0.0
  0
VERTEX
  8
0
 10
159.345824229
 20
-99.2760484574
 30
0.0
  0
SEQEND
  8
0
  0
LINE
  8
0
 62
0
 10
159.474
 20
-99.2849
 30
0.0
 11
159.3915
 21
-99.3674
 31
0.0
  0
POLYLINE
  8
0
 62
0
 70
0
 66
1
 10
0.0
 20
0.0
 30
0.0
  0
VERTEX
  8
0
 10
159.474
 20
-99.2849
 30
0.0
  0
VERTEX
  8
0
 10
159.382648457
 20
-99.2392242287
 30
0.0
  0
SEQEND
  8
0
  0
LINE
  8
0
 62
0
 10
159.474
 20
-96.5999
 30
0.0
 11
159.474
 21
-96.7424
 31
0.0
  0
LINE
  8
0
 62
0
 10
159.474
 20
-96.7424
 30
0.0
 11
159.474
 21
-97.2424
 31
0.0
  0
LINE
  8
0
 62
0
 10
159.474
 20
-97.2424
 30
0.0
 11
159.474
 21
-97.6924
 31
0.0
  0
LINE
  8
0
 62
0
 10
159.474
 20
-97.6924
 30
0.0
 11
159.474
 21
-98.1924
 31
0.0
  0
LINE
  8
0
 62
0
 10
159.474
 20
-98.1924
 30
0.0
 11
159.474
 21
-98.6424
 31
0.0
  0
LINE
  8
0
 62
0
 10
159.474
 20
-98.6424
 30
0.0
 11
159.474
 21
-99.1424
 31
0.0
  0
LINE
  8
0
 62
0
 10
159.474
 20
-99.1424
 30
0.0
 11
159.474
 21
-99.2849
 31
0.0
  0
POLYLINE
  8
0
 62
0
 70
0
 66
1
 10
0.0
 20
0.0
 30
0.0
  0
VERTEX
  8
0
 10
159.474
 20
-96.5999
 30
0.0
  0
VERTEX
  8
0
 10
159.382648457
 20
-96.6455757713
 30
0.0
  0
SEQEND
  8
0
  0
LINE
  8
0
 62
0
 10
159.3915
 20
-96.5174
 30
0.0
 11
159.474
 21
-96.5999
 31
0.0
  0
POLYLINE
  8
0
 62
0
 70
0
 66
1
 10
0.0
 20
0.0
 30
0.0
  0
VERTEX
  8
0
 10
159.3915
 20
-96.5174
 30
0.0
  0
VERTEX
  8
0
 10
159.345824229
 20
-96.6087515426
 30
0.0
  0
SEQEND
  8
0
  0
LINE
  8
0
 62
0
 10
158.0065
 20
-96.5174
 30
0.0
 11
159.3915
 21
-96.5174
 31
0.0
  0
CIRCLE
  8
0
 62
0
 10
159.032648457
 20
-98.9260484574
 30
0.0
 40
0.125
  0
POLYLINE
  8
0
 62
0
 70
0
 66
1
 10
0.0
 20
0.0
 30
0.0
  0
VERTEX
  8
0
 10
159.649
 20
-96.7424
 30
0.0
  0
VERTEX
  8
0
 10
159.899
 20
-96.7424
 30
0.0
  0
SEQEND
  8
0
  0
LINE
  8
0
 62
0
 10
160.099
 20
-96.7424
 30
0.0
 11
159.899
 21
-96.7424
 31
0.0
  0
POLYLINE
  8
0
 62
0
 70
0
 66
1
 10
0.0
 20
0.0
 30
0.0
  0
VERTEX
  8
0
 10
159.899
 20
-96.7424
 30
0.0
  0
VERTEX
  8
0
 10
159.799
 20
-96.7424
 30
0.0
  0
SEQEND
  8
0
  0
POLYLINE
  8
0
 62
0
 70
0
 66
1
 10
0.0
 20
0.0
 30
0.0
  0
VERTEX
  8
0
 10
159.799
 20
-96.7424
 30
0.0
  0
VERTEX
  8
0
 10
159.549
 20
-96.7424
 30
0.0
  0
SEQEND
  8
0
  0
LINE
  8
0
 62
0
 10
159.549
 20
-96.7424
 30
0.0
 11
159.499
 21
-96.7424
 31
0.0
  0
POLYLINE
  8
0
 62
0
 70
0
 66
1
 10
0.0
 20
0.0
 30
0.0
  0
VERTEX
  8
0
 10
159.649
 20
-99.1424
 30
0.0
  0
VERTEX
  8
0
 10
159.899
 20
-99.1424
 30
0.0
  0
SEQEND
  8
0
  0
LINE
  8
0
 62
0
 10
160.099
 20
-99.1424
 30
0.0
 11
159.899
 21
-99.1424
 31
0.0
  0
POLYLINE
  8
0
 62
0
 70
0
 66
1
 10
0.0
 20
0.0
 30
0.0
  0
VERTEX
  8
0
 10
159.899
 20
-99.1424
 30
0.0
  0
VERTEX
  8
0
 10
159.799
 20
-99.1424
 30
0.0
  0
SEQEND
  8
0
  0
POLYLINE
  8
0
 62
0
 70
0
 66
1
 10
0.0
 20
0.0
 30
0.0
  0
VERTEX
  8
0
 10
159.799
 20
-99.1424
 30
0.0
  0
VERTEX
  8
0
 10
159.549
 20
-99.1424
 30
0.0
  0
SEQEND
  8
0
  0
LINE
  8
0
 62
0
 10
159.549
 20
-99.1424
 30
0.0
 11
159.499
 21
-99.1424
 31
0.0
  0
POLYLINE
  8
0
 62
0
 70
0
 66
1
 10
0.0
 20
0.0
 30
0.0
  0
VERTEX
  8
0
 10
159.649
 20
-97.2424
 30
0.0
  0
VERTEX
  8
0
 10
159.899
 20
-97.2424
 30
0.0
  0
SEQEND
  8
0
  0
LINE
  8
0
 62
0
 10
160.099
 20
-97.2424
 30
0.0
 11
159.899
 21
-97.2424
 31
0.0
  0
POLYLINE
  8
0
 62
0
 70
0
 66
1
 10
0.0
 20
0.0
 30
0.0
  0
VERTEX
  8
0
 10
159.899
 20
-97.2424
 30
0.0
  0
VERTEX
  8
0
 10
159.799
 20
-97.2424
 30
0.0
  0
SEQEND
  8
0
  0
POLYLINE
  8
0
 62
0
 70
0
 66
1
 10
0.0
 20
0.0
 30
0.0
  0
VERTEX
  8
0
 10
159.799
 20
-97.2424
 30
0.0
  0
VERTEX
  8
0
 10
159.549
 20
-97.2424
 30
0.0
  0
SEQEND
  8
0
  0
LINE
  8
0
 62
0
 10
159.549
 20
-97.2424
 30
0.0
 11
159.499
 21
-97.2424
 31
0.0
  0
POLYLINE
  8
0
 62
0
 70
0
 66
1
 10
0.0
 20
0.0
 30
0.0
  0
VERTEX
  8
0
 10
159.649
 20
-98.6424
 30
0.0
  0
VERTEX
  8
0
 10
159.899
 20
-98.6424
 30
0.0
  0
SEQEND
  8
0
  0
LINE
  8
0
 62
0
 10
160.099
 20
-98.6424
 30
0.0
 11
159.899
 21
-98.6424
 31
0.0
  0
POLYLINE
  8
0
 62
0
 70
0
 66
1
 10
0.0
 20
0.0
 30
0.0
  0
VERTEX
  8
0
 10
159.899
 20
-98.6424
 30
0.0
  0
VERTEX
  8
0
 10
159.799
 20
-98.6424
 30
0.0
  0
SEQEND
  8
0
  0
POLYLINE
  8
0
 62
0
 70
0
 66
1
 10
0.0
 20
0.0
 30
0.0
  0
VERTEX
  8
0
 10
159.799
 20
-98.6424
 30
0.0
  0
VERTEX
  8
0
 10
159.549
 20
-98.6424
 30
0.0
  0
SEQEND
  8
0
  0
LINE
  8
0
 62
0
 10
159.549
 20
-98.6424
 30
0.0
 11
159.499
 21
-98.6424
 31
0.0
  0
POLYLINE
  8
0
 62
0
 70
0
 66
1
 10
0.0
 20
0.0
 30
0.0
  0
VERTEX
  8
0
 10
159.649
 20
-97.6924
 30
0.0
  0
VERTEX
  8
0
 10
159.899
 20
-97.6924
 30
0.0
  0
SEQEND
  8
0
  0
LINE
  8
0
 62
0
 10
160.099
 20
-97.6924
 30
0.0
 11
159.899
 21
-97.6924
 31
0.0
  0
POLYLINE
  8
0
 62
0
 70
0
 66
1
 10
0.0
 20
0.0
 30
0.0
  0
VERTEX
  8
0
 10
159.899
 20
-97.6924
 30
0.0
  0
VERTEX
  8
0
 10
159.799
 20
-97.6924
 30
0.0
  0
SEQEND
  8
0
  0
POLYLINE
  8
0
 62
0
 70
0
 66
1
 10
0.0
 20
0.0
 30
0.0
  0
VERTEX
  8
0
 10
159.799
 20
-97.6924
 30
0.0
  0
VERTEX
  8
0
 10
159.549
 20
-97.6924
 30
0.0
  0
SEQEND
  8
0
  0
LINE
  8
0
 62
0
 10
159.549
 20
-97.6924
 30
0.0
 11
159.499
 21
-97.6924
 31
0.0
  0
POLYLINE
  8
0
 62
0
 70
0
 66
1
 10
0.0
 20
0.0
 30
0.0
  0
VERTEX
  8
0
 10
159.649
 20
-98.1924
 30
0.0
  0
VERTEX
  8
0
 10
159.899
 20
-98.1924
 30
0.0
  0
SEQEND
  8
0
  0
LINE
  8
0
 62
0
 10
160.099
 20
-98.1924
 30
0.0
 11
159.899
 21
-98.1924
 31
0.0
  0
POLYLINE
  8
0
 62
0
 70
0
 66
1
 10
0.0
 20
0.0
 30
0.0
  0
VERTEX
  8
0
 10
159.899
 20
-98.1924
 30
0.0
  0
VERTEX
  8
0
 10
159.799
 20
-98.1924
 30
0.0
  0
SEQEND
  8
0
  0
POLYLINE
  8
0
 62
0
 70
0
 66
1
 10
0.0
 20
0.0
 30
0.0
  0
VERTEX
  8
0
 10
159.799
 20
-98.1924
 30
0.0
  0
VERTEX
  8
0
 10
159.549
 20
-98.1924
 30
0.0
  0
SEQEND
  8
0
  0
LINE
  8
0
 62
0
 10
159.549
 20
-98.1924
 30
0.0
 11
159.499
 21
-98.1924
 31
0.0
  0
LINE
  8
0
 62
0
 10
159.799
 20
-96.7424
 30
0.0
 11
159.799
 21
-97.2424
 31
0.0
  0
LINE
  8
0
 62
0
 10
159.799
 20
-96.7424
 30
0.0
 11
159.799
 21
-97.2424
 31
0.0
  0
LINE
  8
0
 62
0
 10
160.099
 20
-96.7424
 30
0.0
 11
160.099
 21
-97.2424
 31
0.0
  0
LINE
  8
0
 62
0
 10
159.799
 20
-98.6424
 30
0.0
 11
159.799
 21
-99.1424
 31
0.0
  0
LINE
  8
0
 62
0
 10
159.799
 20
-98.6424
 30
0.0
 11
159.799
 21
-99.1424
 31
0.0
  0
LINE
  8
0
 62
0
 10
160.099
 20
-98.6424
 30
0.0
 11
160.099
 21
-99.1424
 31
0.0
  0
LINE
  8
0
 62
0
 10
159.799
 20
-97.6924
 30
0.0
 11
159.799
 21
-98.1924
 31
0.0
  0
LINE
  8
0
 62
0
 10
159.799
 20
-97.6924
 30
0.0
 11
159.799
 21
-98.1924
 31
0.0
  0
LINE
  8
0
 62
0
 10
160.099
 20
-97.6924
 30
0.0
 11
160.099
 21
-98.1924
 31
0.0
  0
LINE
  8
0
 62
0
 10
157.849
 20
-99.1424
 30
0.0
 11
157.849
 21
-98.6424
 31
0.0
  0
LINE
  8
0
 62
0
 10
157.899
 20
-98.6424
 30
0.0
 11
157.924
 21
-98.6424
 31
0.0
  0
LINE
  8
0
 62
0
 10
157.899
 20
-99.1424
 30
0.0
 11
157.924
 21
-99.1424
 31
0.0
  0
LINE
  8
0
 62
0
 10
157.499
 20
-99.1424
 30
0.0
 11
157.499
 21
-98.6424
 31
0.0
  0
POLYLINE
  8
0
 62
0
 70
0
 66
1
 10
0.0
 20
0.0
 30
0.0
  0
VERTEX
  8
0
 10
157.899
 20
-99.2974
 30
0.0
  0
VERTEX
  8
0
 10
157.924
 20
-99.2849
 30
0.0
  0
SEQEND
  8
0
  0
LINE
  8
0
 62
0
 10
157.899
 20
-98.1924
 30
0.0
 11
157.924
 21
-98.1924
 31
0.0
  0
LINE
  8
0
 62
0
 10
157.899
 20
-96.7424
 30
0.0
 11
157.924
 21
-96.7424
 31
0.0
  0
POLYLINE
  8
0
 62
0
 70
0
 66
1
 10
0.0
 20
0.0
 30
0.0
  0
VERTEX
  8
0
 10
157.899
 20
-96.5874
 30
0.0
  0
VERTEX
  8
0
 10
157.924
 20
-96.5999
 30
0.0
  0
SEQEND
  8
0
  0
LINE
  8
0
 62
0
 10
157.899
 20
-97.6924
 30
0.0
 11
157.924
 21
-97.6924
 31
0.0
  0
LINE
  8
0
 62
0
 10
157.899
 20
-97.2424
 30
0.0
 11
157.924
 21
-97.2424
 31
0.0
  0
POLYLINE
  8
0
 62
0
 70
0
 66
1
 10
0.0
 20
0.0
 30
0.0
  0
VERTEX
  8
0
 10
157.994
 20
-99.3924
 30
0.0
  0
VERTEX
  8
0
 10
158.0065
 20
-99.3674
 30
0.0
  0
SEQEND
  8
0
  0
LINE
  8
0
 62
0
 10
157.849
 20
-98.1924
 30
0.0
 11
157.849
 21
-97.6924
 31
0.0
  0
LINE
  8
0
 62
0
 10
157.849
 20
-97.2424
 30
0.0
 11
157.849
 21
-96.7424
 31
0.0
  0
LINE
  8
0
 62
0
 10
157.499
 20
-98.1924
 30
0.0
 11
157.499
 21
-97.6924
 31
0.0
  0
POLYLINE
  8
0
 62
0
 70
0
 66
1
 10
0.0
 20
0.0
 30
0.0
  0
VERTEX
  8
0
 10
157.994
 20
-96.4924
 30
0.0
  0
VERTEX
  8
0
 10
158.0065
 20
-96.5174
 30
0.0
  0
SEQEND
  8
0
  0
LINE
  8
0
 62
0
 10
157.499
 20
-97.2424
 30
0.0
 11
157.499
 21
-96.7424
 31
0.0
  0
POLYLINE
  8
0
 62
0
 70
0
 66
1
 10
0.0
 20
0.0
 30
0.0
  0
VERTEX
  8
0
 10
159.404
 20
-99.3924
 30
0.0
  0
VERTEX
  8
0
 10
159.3915
 20
-99.3674
 30
0.0
  0
SEQEND
  8
0
  0
POLYLINE
  8
0
 62
0
 70
0
 66
1
 10
0.0
 20
0.0
 30
0.0
  0
VERTEX
  8
0
 10
159.404
 20
-96.4924
 30
0.0
  0
VERTEX
  8
0
 10
159.3915
 20
-96.5174
 30
0.0
  0
SEQEND
  8
0
  0
POLYLINE
  8
0
 62
0
 70
0
 66
1
 10
0.0
 20
0.0
 30
0.0
  0
VERTEX
  8
0
 10
159.499
 20
-96.5874
 30
0.0
  0
VERTEX
  8
0
 10
159.474
 20
-96.5999
 30
0.0
  0
SEQEND
  8
0
  0
LINE
  8
0
 62
0
 10
159.499
 20
-96.7424
 30
0.0
 11
159.474
 21
-96.7424
 31
0.0
  0
LINE
  8
0
 62
0
 10
159.499
 20
-99.1424
 30
0.0
 11
159.474
 21
-99.1424
 31
0.0
  0
POLYLINE
  8
0
 62
0
 70
0
 66
1
 10
0.0
 20
0.0
 30
0.0
  0
VERTEX
  8
0
 10
159.499
 20
-99.2974
 30
0.0
  0
VERTEX
  8
0
 10
159.474
 20
-99.2849
 30
0.0
  0
SEQEND
  8
0
  0
LINE
  8
0
 62
0
 10
159.499
 20
-97.2424
 30
0.0
 11
159.474
 21
-97.2424
 31
0.0
  0
LINE
  8
0
 62
0
 10
159.499
 20
-97.6924
 30
0.0
 11
159.474
 21
-97.6924
 31
0.0
  0
LINE
  8
0
 62
0
 10
159.499
 20
-98.1924
 30
0.0
 11
159.474
 21
-98.1924
 31
0.0
  0
LINE
  8
0
 62
0
 10
159.499
 20
-98.6424
 30
0.0
 11
159.474
 21
-98.6424
 31
0.0
  0
LINE
  8
0
 62
0
 10
159.549
 20
-96.7424
 30
0.0
 11
159.549
 21
-97.2424
 31
0.0
  0
LINE
  8
0
 62
0
 10
159.549
 20
-97.6924
 30
0.0
 11
159.549
 21
-98.1924
 31
0.0
  0
LINE
  8
0
 62
0
 10
159.549
 20
-98.6424
 30
0.0
 11
159.549
 21
-99.1424
 31
0.0
  0
LINE
  8
0
 62
0
 10
159.899
 20
-96.7424
 30
0.0
 11
159.899
 21
-97.2424
 31
0.0
  0
LINE
  8
0
 62
0
 10
159.899
 20
-98.6424
 30
0.0
 11
159.899
 21
-99.1424
 31
0.0
  0
LINE
  8
0
 62
0
 10
159.899
 20
-97.6924
 30
0.0
 11
159.899
 21
-98.1924
 31
0.0
  0
ENDBLK
  0
BLOCK
  8
0
  2
SHAPE2DVIEW002
 70
0
 10
0.0
 20
0.0
 30
0.0
  3
SHAPE2DVIEW002
  0
LINE
  8
0
 62
0
 10
159.582
 20
-105.971
 30
0.0
 11
158.172
 21
-105.971
 31
0.0
  0
LINE
  8
0
 62
0
 10
158.172
 20
-105.971
 30
0.0
 11
158.077
 21
-105.876
 31
0.0
  0
LINE
  8
0
 62
0
 10
159.5695
 20
-105.946
 30
0.0
 11
158.1845
 21
-105.946
 31
0.0
  0
LINE
  8
0
 62
0
 10
159.677
 20
-105.876
 30
0.0
 11
159.582
 21
-105.971
 31
0.0
  0
LINE
  8
0
 62
0
 10
158.077
 20
-105.876
 30
0.0
 11
158.077
 21
-104.771
 31
0.0
  0
LINE
  8
0
 62
0
 10
158.077
 20
-104.271
 30
0.0
 11
158.077
 21
-103.166
 31
0.0
  0
LINE
  8
0
 62
0
 10
158.077
 20
-103.166
 30
0.0
 11
158.172
 21
-103.071
 31
0.0
  0
LINE
  8
0
 62
0
 10
158.172
 20
-103.071
 30
0.0
 11
159.582
 21
-103.071
 31
0.0
  0
LINE
  8
0
 62
0
 10
159.582
 20
-103.071
 30
0.0
 11
159.677
 21
-103.166
 31
0.0
  0
LINE
  8
0
 62
0
 10
159.677
 20
-103.166
 30
0.0
 11
159.677
 21
-103.321
 31
0.0
  0
LINE
  8
0
 62
0
 10
159.677
 20
-105.721
 30
0.0
 11
159.677
 21
-105.876
 31
0.0
  0
LINE
  8
0
 62
0
 10
159.677
 20
-103.821
 30
0.0
 11
159.677
 21
-105.221
 31
0.0
  0
LINE
  8
0
 62
0
 10
158.1845
 20
-105.946
 30
0.0
 11
158.102
 21
-105.8635
 31
0.0
  0
POLYLINE
  8
0
 62
0
 70
0
 66
1
 10
0.0
 20
0.0
 30
0.0
  0
VERTEX
  8
0
 10
158.1845
 20
-105.946
 30
0.0
  0
VERTEX
  8
0
 10
158.230175771
 20
-105.854648457
 30
0.0
  0
SEQEND
  8
0
  0
LINE
  8
0
 62
0
 10
159.523824229
 20
-105.854648457
 30
0.0
 11
158.230175771
 21
-105.854648457
 31
0.0
  0
POLYLINE
  8
0
 62
0
 70
0
 66
1
 10
0.0
 20
0.0
 30
0.0
  0
VERTEX
  8
0
 10
159.5695
 20
-105.946
 30
0.0
  0
VERTEX
  8
0
 10
159.523824229
 20
-105.854648457
 30
0.0
  0
SEQEND
  8
0
  0
LINE
  8
0
 62
0
 10
159.652
 20
-105.8635
 30
0.0
 11
159.5695
 21
-105.946
 31
0.0
  0
LINE
  8
0
 62
0
 10
158.102
 20
-105.8635
 30
0.0
 11
158.102
 21
-104.771
 31
0.0
  0
POLYLINE
  8
0
 62
0
 70
0
 66
1
 10
0.0
 20
0.0
 30
0.0
  0
VERTEX
  8
0
 10
157.927
 20
-104.771
 30
0.0
  0
VERTEX
  8
0
 10
157.677
 20
-104.771
 30
0.0
  0
SEQEND
  8
0
  0
LINE
  8
0
 62
0
 10
157.477
 20
-104.771
 30
0.0
 11
157.677
 21
-104.771
 31
0.0
  0
POLYLINE
  8
0
 62
0
 70
0
 66
1
 10
0.0
 20
0.0
 30
0.0
  0
VERTEX
  8
0
 10
157.677
 20
-104.771
 30
0.0
  0
VERTEX
  8
0
 10
157.777
 20
-104.771
 30
0.0
  0
SEQEND
  8
0
  0
POLYLINE
  8
0
 62
0
 70
0
 66
1
 10
0.0
 20
0.0
 30
0.0
  0
VERTEX
  8
0
 10
157.777
 20
-104.771
 30
0.0
  0
VERTEX
  8
0
 10
158.027
 20
-104.771
 30
0.0
  0
SEQEND
  8
0
  0
LINE
  8
0
 62
0
 10
158.027
 20
-104.771
 30
0.0
 11
158.077
 21
-104.771
 31
0.0
  0
POLYLINE
  8
0
 62
0
 70
0
 66
1
 10
0.0
 20
0.0
 30
0.0
  0
VERTEX
  8
0
 10
157.927
 20
-104.271
 30
0.0
  0
VERTEX
  8
0
 10
157.677
 20
-104.271
 30
0.0
  0
SEQEND
  8
0
  0
LINE
  8
0
 62
0
 10
157.477
 20
-104.271
 30
0.0
 11
157.677
 21
-104.271
 31
0.0
  0
POLYLINE
  8
0
 62
0
 70
0
 66
1
 10
0.0
 20
0.0
 30
0.0
  0
VERTEX
  8
0
 10
157.677
 20
-104.271
 30
0.0
  0
VERTEX
  8
0
 10
157.777
 20
-104.271
 30
0.0
  0
SEQEND
  8
0
  0
POLYLINE
  8
0
 62
0
 70
0
 66
1
 10
0.0
 20
0.0
 30
0.0
  0
VERTEX
  8
0
 10
157.777
 20
-104.271
 30
0.0
  0
VERTEX
  8
0
 10
158.027
 20
-104.271
 30
0.0
  0
SEQEND
  8
0
  0
LINE
  8
0
 62
0
 10
158.027
 20
-104.271
 30
0.0
 11
158.077
 21
-104.271
 31
0.0
  0
LINE
  8
0
 62
0
 10
158.102
 20
-104.271
 30
0.0
 11
158.102
 21
-103.1785
 31
0.0
  0
LINE
  8
0
 62
0
 10
158.102
 20
-103.1785
 30
0.0
 11
158.1845
 21
-103.096
 31
0.0
  0
LINE
  8
0
 62
0
 10
158.1845
 20
-103.096
 30
0.0
 11
159.5695
 21
-103.096
 31
0.0
  0
LINE
  8
0
 62
0
 10
159.5695
 20
-103.096
 30
0.0
 11
159.652
 21
-103.1785
 31
0.0
  0
LINE
  8
0
 62
0
 10
159.652
 20
-103.1785
 30
0.0
 11
159.652
 21
-103.321
 31
0.0
  0
POLYLINE
  8
0
 62
0
 70
0
 66
1
 10
0.0
 20
0.0
 30
0.0
  0
VERTEX
  8
0
 10
159.827
 20
-103.321
 30
0.0
  0
VERTEX
  8
0
 10
160.077
 20
-103.321
 30
0.0
  0
SEQEND
  8
0
  0
LINE
  8
0
 62
0
 10
160.277
 20
-103.321
 30
0.0
 11
160.077
 21
-103.321
 31
0.0
  0
POLYLINE
  8
0
 62
0
 70
0
 66
1
 10
0.0
 20
0.0
 30
0.0
  0
VERTEX
  8
0
 10
160.077
 20
-103.321
 30
0.0
  0
VERTEX
  8
0
 10
159.977
 20
-103.321
 30
0.0
  0
SEQEND
  8
0
  0
POLYLINE
  8
0
 62
0
 70
0
 66
1
 10
0.0
 20
0.0
 30
0.0
  0
VERTEX
  8
0
 10
159.977
 20
-103.321
 30
0.0
  0
VERTEX
  8
0
 10
159.727
 20
-103.321
 30
0.0
  0
SEQEND
  8
0
  0
LINE
  8
0
 62
0
 10
159.727
 20
-103.321
 30
0.0
 11
159.677
 21
-103.321
 31
0.0
  0
POLYLINE
  8
0
 62
0
 70
0
 66
1
 10
0.0
 20
0.0
 30
0.0
  0
VERTEX
  8
0
 10
159.827
 20
-105.721
 30
0.0
  0
VERTEX
  8
0
 10
160.077
 20
-105.721
 30
0.0
  0
SEQEND
  8
0
  0
LINE
  8
0
 62
0
 10
160.277
 20
-105.721
 30
0.0
 11
160.077
 21
-105.721
 31
0.0
  0
POLYLINE
  8
0
 62
0
 70
0
 66
1
 10
0.0
 20
0.0
 30
0.0
  0
VERTEX
  8
0
 10
160.077
 20
-105.721
 30
0.0
  0
VERTEX
  8
0
 10
159.977
 20
-105.721
 30
0.0
  0
SEQEND
  8
0
  0
POLYLINE
  8
0
 62
0
 70
0
 66
1
 10
0.0
 20
0.0
 30
0.0
  0
VERTEX
  8
0
 10
159.977
 20
-105.721
 30
0.0
  0
VERTEX
  8
0
 10
159.727
 20
-105.721
 30
0.0
  0
SEQEND
  8
0
  0
LINE
  8
0
 62
0
 10
159.727
 20
-105.721
 30
0.0
 11
159.677
 21
-105.721
 31
0.0
  0
LINE
  8
0
 62
0
 10
159.652
 20
-105.721
 30
0.0
 11
159.652
 21
-105.8635
 31
0.0
  0
POLYLINE
  8
0
 62
0
 70
0
 66
1
 10
0.0
 20
0.0
 30
0.0
  0
VERTEX
  8
0
 10
159.827
 20
-103.821
 30
0.0
  0
VERTEX
  8
0
 10
160.077
 20
-103.821
 30
0.0
  0
SEQEND
  8
0
  0
LINE
  8
0
 62
0
 10
160.277
 20
-103.821
 30
0.0
 11
160.077
 21
-103.821
 31
0.0
  0
POLYLINE
  8
0
 62
0
 70
0
 66
1
 10
0.0
 20
0.0
 30
0.0
  0
VERTEX
  8
0
 10
160.077
 20
-103.821
 30
0.0
  0
VERTEX
  8
0
 10
159.977
 20
-103.821
 30
0.0
  0
SEQEND
  8
0
  0
POLYLINE
  8
0
 62
0
 70
0
 66
1
 10
0.0
 20
0.0
 30
0.0
  0
VERTEX
  8
0
 10
159.977
 20
-103.821
 30
0.0
  0
VERTEX
  8
0
 10
159.727
 20
-103.821
 30
0.0
  0
SEQEND
  8
0
  0
LINE
  8
0
 62
0
 10
159.727
 20
-103.821
 30
0.0
 11
159.677
 21
-103.821
 31
0.0
  0
POLYLINE
  8
0
 62
0
 70
0
 66
1
 10
0.0
 20
0.0
 30
0.0
  0
VERTEX
  8
0
 10
159.827
 20
-105.221
 30
0.0
  0
VERTEX
  8
0
 10
160.077
 20
-105.221
 30
0.0
  0
SEQEND
  8
0
  0
LINE
  8
0
 62
0
 10
160.277
 20
-105.221
 30
0.0
 11
160.077
 21
-105.221
 31
0.0
  0
POLYLINE
  8
0
 62
0
 70
0
 66
1
 10
0.0
 20
0.0
 30
0.0
  0
VERTEX
  8
0
 10
160.077
 20
-105.221
 30
0.0
  0
VERTEX
  8
0
 10
159.977
 20
-105.221
 30
0.0
  0
SEQEND
  8
0
  0
POLYLINE
  8
0
 62
0
 70
0
 66
1
 10
0.0
 20
0.0
 30
0.0
  0
VERTEX
  8
0
 10
159.977
 20
-105.221
 30
0.0
  0
VERTEX
  8
0
 10
159.727
 20
-105.221
 30
0.0
  0
SEQEND
  8
0
  0
LINE
  8
0
 62
0
 10
159.727
 20
-105.221
 30
0.0
 11
159.677
 21
-105.221
 31
0.0
  0
LINE
  8
0
 62
0
 10
159.652
 20
-103.821
 30
0.0
 11
159.652
 21
-105.221
 31
0.0
  0
POLYLINE
  8
0
 62
0
 70
0
 66
1
 10
0.0
 20
0.0
 30
0.0
  0
VERTEX
  8
0
 10
158.102
 20
-105.8635
 30
0.0
  0
VERTEX
  8
0
 10
158.193351543
 20
-105.817824229
 30
0.0
  0
SEQEND
  8
0
  0
LINE
  8
0
 62
0
 10
158.230175771
 20
-105.854648457
 30
0.0
 11
158.193351543
 21
-105.817824229
 31
0.0
  0
LINE
  8
0
 62
0
 10
159.560648457
 20
-105.817824229
 30
0.0
 11
159.523824229
 21
-105.854648457
 31
0.0
  0
LINE
  8
0
 62
0
 10
159.560648457
 20
-103.224175771
 30
0.0
 11
159.560648457
 21
-105.817824229
 31
0.0
  0
LINE
  8
0
 62
0
 10
159.523824229
 20
-103.187351543
 30
0.0
 11
159.560648457
 21
-103.224175771
 31
0.0
  0
LINE
  8
0
 62
0
 10
158.230175771
 20
-103.187351543
 30
0.0
 11
159.523824229
 21
-103.187351543
 31
0.0
  0
LINE
  8
0
 62
0
 10
158.193351543
 20
-103.224175771
 30
0.0
 11
158.230175771
 21
-103.187351543
 31
0.0
  0
LINE
  8
0
 62
0
 10
158.193351543
 20
-105.817824229
 30
0.0
 11
158.193351543
 21
-103.224175771
 31
0.0
  0
POLYLINE
  8
0
 62
0
 70
0
 66
1
 10
0.0
 20
0.0
 30
0.0
  0
VERTEX
  8
0
 10
159.652
 20
-105.8635
 30
0.0
  0
VERTEX
  8
0
 10
159.560648457
 20
-105.817824229
 30
0.0
  0
SEQEND
  8
0
  0
LINE
  8
0
 62
0
 10
158.102
 20
-104.771
 30
0.0
 11
158.102
 21
-104.271
 31
0.0
  0
POLYLINE
  8
0
 62
0
 70
0
 66
1
 10
0.0
 20
0.0
 30
0.0
  0
VERTEX
  8
0
 10
158.102
 20
-103.1785
 30
0.0
  0
VERTEX
  8
0
 10
158.193351543
 20
-103.224175771
 30
0.0
  0
SEQEND
  8
0
  0
LINE
  8
0
 62
0
 10
157.777
 20
-104.771
 30
0.0
 11
157.777
 21
-104.271
 31
0.0
  0
LINE
  8
0
 62
0
 10
157.777
 20
-104.771
 30
0.0
 11
157.777
 21
-104.271
 31
0.0
  0
LINE
  8
0
 62
0
 10
157.477
 20
-104.771
 30
0.0
 11
157.477
 21
-104.271
 31
0.0
  0
POLYLINE
  8
0
 62
0
 70
0
 66
1
 10
0.0
 20
0.0
 30
0.0
  0
VERTEX
  8
0
 10
158.1845
 20
-103.096
 30
0.0
  0
VERTEX
  8
0
 10
158.230175771
 20
-103.187351543
 30
0.0
  0
SEQEND
  8
0
  0
POLYLINE
  8
0
 62
0
 70
0
 66
1
 10
0.0
 20
0.0
 30
0.0
  0
VERTEX
  8
0
 10
159.5695
 20
-103.096
 30
0.0
  0
VERTEX
  8
0
 10
159.523824229
 20
-103.187351543
 30
0.0
  0
SEQEND
  8
0
  0
POLYLINE
  8
0
 62
0
 70
0
 66
1
 10
0.0
 20
0.0
 30
0.0
  0
VERTEX
  8
0
 10
159.652
 20
-103.1785
 30
0.0
  0
VERTEX
  8
0
 10
159.560648457
 20
-103.224175771
 30
0.0
  0
SEQEND
  8
0
  0
LINE
  8
0
 62
0
 10
159.652
 20
-103.321
 30
0.0
 11
159.652
 21
-103.821
 31
0.0
  0
LINE
  8
0
 62
0
 10
159.652
 20
-105.221
 30
0.0
 11
159.652
 21
-105.721
 31
0.0
  0
LINE
  8
0
 62
0
 10
159.977
 20
-103.321
 30
0.0
 11
159.977
 21
-103.821
 31
0.0
  0
LINE
  8
0
 62
0
 10
159.977
 20
-103.321
 30
0.0
 11
159.977
 21
-103.821
 31
0.0
  0
LINE
  8
0
 62
0
 10
160.277
 20
-103.321
 30
0.0
 11
160.277
 21
-103.821
 31
0.0
  0
LINE
  8
0
 62
0
 10
159.977
 20
-105.221
 30
0.0
 11
159.977
 21
-105.721
 31
0.0
  0
LINE
  8
0
 62
0
 10
159.977
 20
-105.221
 30
0.0
 11
159.977
 21
-105.721
 31
0.0
  0
LINE
  8
0
 62
0
 10
160.277
 20
-105.221
 30
0.0
 11
160.277
 21
-105.721
 31
0.0
  0
POLYLINE
  8
0
 62
0
 70
0
 66
1
 10
0.0
 20
0.0
 30
0.0
  0
VERTEX
  8
0
 10
158.172
 20
-105.971
 30
0.0
  0
VERTEX
  8
0
 10
158.1845
 20
-105.946
 30
0.0
  0
SEQEND
  8
0
  0
POLYLINE
  8
0
 62
0
 70
0
 66
1
 10
0.0
 20
0.0
 30
0.0
  0
VERTEX
  8
0
 10
159.582
 20
-105.971
 30
0.0
  0
VERTEX
  8
0
 10
159.5695
 20
-105.946
 30
0.0
  0
SEQEND
  8
0
  0
POLYLINE
  8
0
 62
0
 70
0
 66
1
 10
0.0
 20
0.0
 30
0.0
  0
VERTEX
  8
0
 10
158.077
 20
-105.876
 30
0.0
  0
VERTEX
  8
0
 10
158.102
 20
-105.8635
 30
0.0
  0
SEQEND
  8
0
  0
POLYLINE
  8
0
 62
0
 70
0
 66
1
 10
0.0
 20
0.0
 30
0.0
  0
VERTEX
  8
0
 10
159.677
 20
-105.876
 30
0.0
  0
VERTEX
  8
0
 10
159.652
 20
-105.8635
 30
0.0
  0
SEQEND
  8
0
  0
LINE
  8
0
 62
0
 10
158.077
 20
-104.771
 30
0.0
 11
158.102
 21
-104.771
 31
0.0
  0
LINE
  8
0
 62
0
 10
158.077
 20
-104.271
 30
0.0
 11
158.102
 21
-104.271
 31
0.0
  0
POLYLINE
  8
0
 62
0
 70
0
 66
1
 10
0.0
 20
0.0
 30
0.0
  0
VERTEX
  8
0
 10
158.077
 20
-103.166
 30
0.0
  0
VERTEX
  8
0
 10
158.102
 20
-103.1785
 30
0.0
  0
SEQEND
  8
0
  0
POLYLINE
  8
0
 62
0
 70
0
 66
1
 10
0.0
 20
0.0
 30
0.0
  0
VERTEX
  8
0
 10
158.172
 20
-103.071
 30
0.0
  0
VERTEX
  8
0
 10
158.1845
 20
-103.096
 30
0.0
  0
SEQEND
  8
0
  0
POLYLINE
  8
0
 62
0
 70
0
 66
1
 10
0.0
 20
0.0
 30
0.0
  0
VERTEX
  8
0
 10
159.582
 20
-103.071
 30
0.0
  0
VERTEX
  8
0
 10
159.5695
 20
-103.096
 30
0.0
  0
SEQEND
  8
0
  0
POLYLINE
  8
0
 62
0
 70
0
 66
1
 10
0.0
 20
0.0
 30
0.0
  0
VERTEX
  8
0
 10
159.677
 20
-103.166
 30
0.0
  0
VERTEX
  8
0
 10
159.652
 20
-103.1785
 30
0.0
  0
SEQEND
  8
0
  0
LINE
  8
0
 62
0
 10
159.677
 20
-103.321
 30
0.0
 11
159.652
 21
-103.321
 31
0.0
  0
LINE
  8
0
 62
0
 10
159.677
 20
-105.721
 30
0.0
 11
159.652
 21
-105.721
 31
0.0
  0
LINE
  8
0
 62
0
 10
159.677
 20
-103.821
 30
0.0
 11
159.652
 21
-103.821
 31
0.0
  0
LINE
  8
0
 62
0
 10
159.677
 20
-105.221
 30
0.0
 11
159.652
 21
-105.221
 31
0.0
  0
LINE
  8
0
 62
0
 10
158.027
 20
-104.771
 30
0.0
 11
158.027
 21
-104.271
 31
0.0
  0
LINE
  8
0
 62
0
 10
157.677
 20
-104.771
 30
0.0
 11
157.677
 21
-104.271
 31
0.0
  0
LINE
  8
0
 62
0
 10
159.727
 20
-103.321
 30
0.0
 11
159.727
 21
-103.821
 31
0.0
  0
LINE
  8
0
 62
0
 10
160.077
 20
-103.321
 30
0.0
 11
160.077
 21
-103.821
 31
0.0
  0
LINE
  8
0
 62
0
 10
159.727
 20
-105.221
 30
0.0
 11
159.727
 21
-105.721
 31
0.0
  0
LINE
  8
0
 62
0
 10
160.077
 20
-105.221
 30
0.0
 11
160.077
 21
-105.721
 31
0.0
  0
ENDBLK
  0
BLOCK
  8
0
  2
SHAPE2DVIEW013
 70
0
 10
0.0
 20
0.0
 30
0.0
  3
SHAPE2DVIEW013
  0
POLYLINE
  8
0
 62
0
 70
0
 66
1
 10
0.0
 20
0.0
 30
0.0
  0
VERTEX
  8
0
 10
160.391
 20
-101.2
 30
0.0
  0
VERTEX
  8
0
 10
160.366
 20
-101.2
 30
0.0
  0
SEQEND
  8
0
  0
LINE
  8
0
 62
0
 10
160.366
 20
-101.2
 30
0.0
 11
159.166
 21
-101.2
 31
0.0
  0
POLYLINE
  8
0
 62
0
 70
0
 66
1
 10
0.0
 20
0.0
 30
0.0
  0
VERTEX
  8
0
 10
159.141
 20
-101.2
 30
0.0
  0
VERTEX
  8
0
 10
159.166
 20
-101.2
 30
0.0
  0
SEQEND
  8
0
  0
LINE
  8
0
 62
0
 10
160.391
 20
-101.2
 30
0.0
 11
160.391
 21
-101.55
 31
0.0
  0
LINE
  8
0
 62
0
 10
160.391
 20
-101.2
 30
0.0
 11
160.391
 21
-101.55
 31
0.0
  0
POLYLINE
  8
0
 62
0
 70
0
 66
1
 10
0.0
 20
0.0
 30
0.0
  0
VERTEX
  8
0
 10
160.391
 20
-101.55
 30
0.0
  0
VERTEX
  8
0
 10
160.366
 20
-101.55
 30
0.0
  0
SEQEND
  8
0
  0
LINE
  8
0
 62
0
 10
160.366
 20
-101.55
 30
0.0
 11
159.166
 21
-101.55
 31
0.0
  0
LINE
  8
0
 62
0
 10
159.141
 20
-101.2
 30
0.0
 11
159.141
 21
-101.55
 31
0.0
  0
POLYLINE
  8
0
 62
0
 70
0
 66
1
 10
0.0
 20
0.0
 30
0.0
  0
VERTEX
  8
0
 10
159.141
 20
-101.55
 30
0.0
  0
VERTEX
  8
0
 10
159.166
 20
-101.55
 30
0.0
  0
SEQEND
  8
0
  0
LINE
  8
0
 62
0
 10
159.141
 20
-101.2
 30
0.0
 11
159.141
 21
-101.55
 31
0.0
  0
POLYLINE
  8
0
 62
0
 70
0
 66
1
 10
0.0
 20
0.0
 30
0.0
  0
VERTEX
  8
0
 10
159.166
 20
-101.55
 30
0.0
  0
VERTEX
  8
0
 10
159.186
 20
-101.55
 30
0.0
  0
SEQEND
  8
0
  0
LINE
  8
0
 62
0
 10
160.346
 20
-101.55
 30
0.0
 11
159.186
 21
-101.55
 31
0.0
  0
LINE
  8
0
 62
0
 10
160.371
 20
-101.55
 30
0.0
 11
160.371
 21
-102.85
 31
0.0
  0
LINE
  8
0
 62
0
 10
159.161
 20
-101.55
 30
0.0
 11
159.161
 21
-102.85
 31
0.0
  0
POLYLINE
  8
0
 62
0
 70
0
 66
1
 10
0.0
 20
0.0
 30
0.0
  0
VERTEX
  8
0
 10
160.391
 20
-102.85
 30
0.0
  0
VERTEX
  8
0
 10
160.366
 20
-102.85
 30
0.0
  0
SEQEND
  8
0
  0
LINE
  8
0
 62
0
 10
160.366
 20
-102.85
 30
0.0
 11
159.166
 21
-102.85
 31
0.0
  0
POLYLINE
  8
0
 62
0
 70
0
 66
1
 10
0.0
 20
0.0
 30
0.0
  0
VERTEX
  8
0
 10
159.141
 20
-102.85
 30
0.0
  0
VERTEX
  8
0
 10
159.166
 20
-102.85
 30
0.0
  0
SEQEND
  8
0
  0
LINE
  8
0
 62
0
 10
160.391
 20
-102.85
 30
0.0
 11
160.391
 21
-103.2
 31
0.0
  0
LINE
  8
0
 62
0
 10
160.391
 20
-102.85
 30
0.0
 11
160.391
 21
-103.2
 31
0.0
  0
POLYLINE
  8
0
 62
0
 70
0
 66
1
 10
0.0
 20
0.0
 30
0.0
  0
VERTEX
  8
0
 10
160.391
 20
-103.2
 30
0.0
  0
VERTEX
  8
0
 10
160.366
 20
-103.2
 30
0.0
  0
SEQEND
  8
0
  0
LINE
  8
0
 62
0
 10
160.366
 20
-103.2
 30
0.0
 11
159.166
 21
-103.2
 31
0.0
  0
LINE
  8
0
 62
0
 10
159.141
 20
-102.85
 30
0.0
 11
159.141
 21
-103.2
 31
0.0
  0
POLYLINE
  8
0
 62
0
 70
0
 66
1
 10
0.0
 20
0.0
 30
0.0
  0
VERTEX
  8
0
 10
159.141
 20
-103.2
 30
0.0
  0
VERTEX
  8
0
 10
159.166
 20
-103.2
 30
0.0
  0
SEQEND
  8
0
  0
LINE
  8
0
 62
0
 10
159.141
 20
-102.85
 30
0.0
 11
159.141
 21
-103.2
 31
0.0
  0
LINE
  8
0
 62
0
 10
160.366
 20
-101.2
 30
0.0
 11
160.366
 21
-101.55
 31
0.0
  0
LINE
  8
0
 62
0
 10
159.166
 20
-101.2
 30
0.0
 11
159.166
 21
-101.55
 31
0.0
  0
LINE
  8
0
 62
0
 10
160.346
 20
-101.55
 30
0.0
 11
160.346
 21
-102.85
 31
0.0
  0
LINE
  8
0
 62
0
 10
159.186
 20
-101.55
 30
0.0
 11
159.186
 21
-102.85
 31
0.0
  0
LINE
  8
0
 62
0
 10
160.366
 20
-102.85
 30
0.0
 11
160.366
 21
-103.2
 31
0.0
  0
LINE
  8
0
 62
0
 10
159.166
 20
-102.85
 30
0.0
 11
159.166
 21
-103.2
 31
0.0
  0
ENDBLK
  0
ENDSEC
  0
SECTION
  2
ENTITIES
  0
INSERT
  2
SHAPE2DVIEW
  8
0
 62
0
 10
0.0
 20
0.0
 30
0.0
  0
INSERT
  2
SHAPE2DVIEW009
  8
0
 62
0
 10
0.0
 20
0.0
 30
0.0
  0
INSERT
  2
SHAPE2DVIEW010
  8
0
 62
0
 10
0.0
 20
0.0
 30
0.0
  0
INSERT
  2
SHAPE2DVIEW005
  8
0
 62
0
 10
0.0
 20
0.0
 30
0.0
  0
INSERT
  2
SHAPE2DVIEW007
  8
0
 62
0
 10
0.0
 20
0.0
 30
0.0
  0
INSERT
  2
SHAPE2DVIEW006
  8
0
 62
0
 10
0.0
 20
0.0
 30
0.0
  0
INSERT
  2
SHAPE2DVIEW008
  8
0
 62
0
 10
0.0
 20
0.0
 30
0.0
  0
INSERT
  2
SHAPE2DVIEW011
  8
0
 62
0
 10
0.0
 20
0.0
 30
0.0
  0
INSERT
  2
SHAPE2DVIEW012
  8
0
 62
0
 10
0.0
 20
0.0
 30
0.0
  0
INSERT
  2
SHAPE2DVIEW001
  8
0
 62
0
 10
0.0
 20
0.0
 30
0.0
  0
INSERT
  2
SHAPE2DVIEW003
  8
0
 62
0
 10
0.0
 20
0.0
 30
0.0
  0
INSERT
  2
SHAPE2DVIEW004
  8
0
 62
0
 10
0.0
 20
0.0
 30
0.0
  0
INSERT
  2
SHAPE2DVIEW002
  8
0
 62
0
 10
0.0
 20
0.0
 30
0.0
  0
INSERT
  2
SHAPE2DVIEW013
  8
0
 62
0
 10
0.0
 20
0.0
 30
0.0
  0
ENDSEC
  0
EOF
